<svg xmlns="http://www.w3.org/2000/svg" style="background:#0f172a; border-radius:8px; border:1px solid #334155;" xmlns:xlink="http://www.w3.org/1999/xlink" width="2000" zoomAndPan="magnify" viewBox="0 0 1500 1499.999933" height="2000" preserveAspectRatio="xMidYMid meet" version="1.0"><defs><g/></defs><rect width="1500" height="1500" fill="#0f172a"/><g fill="#e2e8f0" fill-opacity="1"><g transform="translate(608.572997, 763.74865)"><g><path d="M 14.75 -129.15625 L 85.265625 -129.15625 L 85.265625 -105.234375 L 39.390625 -105.234375 L 39.390625 -81.65625 L 85.265625 -81.65625 L 85.265625 -58.28125 L 39.390625 -58.28125 L 39.390625 -24.109375 L 85.265625 -24.109375 L 85.265625 0 L 14.75 0 Z M 14.75 -129.15625 "/></g></g></g><g fill="#e2e8f0" fill-opacity="1"><g transform="translate(692.932426, 763.74865)"><g><path d="M 35.96875 -95.515625 L 35.96875 -85.796875 C 40.882812 -89.878906 45.5625 -92.9375 50 -94.96875 C 54.4375 -97.007812 59.175781 -98.03125 64.21875 -98.03125 C 70.207031 -98.03125 75.691406 -96.710938 80.671875 -94.078125 C 85.648438 -91.441406 89.609375 -87.632812 92.546875 -82.65625 C 95.484375 -77.675781 96.953125 -71.890625 96.953125 -65.296875 L 96.953125 0 L 73.03125 0 L 73.03125 -45.15625 C 73.03125 -52.34375 72.671875 -58.09375 71.953125 -62.40625 C 71.234375 -66.726562 69.703125 -70.085938 67.359375 -72.484375 C 65.023438 -74.890625 61.519531 -76.09375 56.84375 -76.09375 C 52.882812 -76.09375 49.316406 -74.984375 46.140625 -72.765625 C 42.960938 -70.546875 40.472656 -67.273438 38.671875 -62.953125 C 36.867188 -58.640625 35.96875 -53.363281 35.96875 -47.125 L 35.96875 0 L 12.046875 0 L 12.046875 -95.515625 Z M 35.96875 -95.515625 "/></g></g></g><g fill="#e2e8f0" fill-opacity="1"><g transform="translate(791.861406, 763.74865)"><g><path d="M 57.375 37.234375 C 44.3125 37.234375 33.609375 34.679688 25.265625 29.578125 C 16.929688 24.484375 11.148438 16.960938 7.921875 7.015625 L 34.359375 7.015625 C 36.753906 9.890625 39.78125 11.988281 43.4375 13.3125 C 47.09375 14.632812 51.441406 15.296875 56.484375 15.296875 C 65.472656 15.296875 72.097656 13.316406 76.359375 9.359375 C 80.617188 5.398438 82.75 -0.535156 82.75 -8.453125 L 82.75 -11.875 C 78.664062 -7.914062 74.316406 -4.945312 69.703125 -2.96875 C 65.085938 -0.988281 59.78125 0 53.78125 0 C 45.269531 0 37.503906 -2.097656 30.484375 -6.296875 C 23.472656 -10.492188 17.957031 -16.335938 13.9375 -23.828125 C 9.925781 -31.328125 7.921875 -39.753906 7.921875 -49.109375 C 7.921875 -58.703125 9.925781 -67.210938 13.9375 -74.640625 C 17.957031 -82.078125 23.351562 -87.832031 30.125 -91.90625 C 36.90625 -95.988281 44.375 -98.03125 52.53125 -98.03125 C 58.28125 -98.03125 63.582031 -96.953125 68.4375 -94.796875 C 73.300781 -92.640625 78.070312 -89.398438 82.75 -85.078125 L 82.75 -95.515625 L 106.671875 -95.515625 L 106.671875 -13.671875 C 106.671875 3.234375 102.648438 15.941406 94.609375 24.453125 C 86.578125 32.972656 74.164062 37.234375 57.375 37.234375 Z M 58.28125 -21.9375 C 63.195312 -21.9375 67.601562 -23.046875 71.5 -25.265625 C 75.394531 -27.484375 78.453125 -30.628906 80.671875 -34.703125 C 82.890625 -38.785156 84 -43.46875 84 -48.75 C 84 -53.90625 82.921875 -58.550781 80.765625 -62.6875 C 78.609375 -66.820312 75.550781 -70.085938 71.59375 -72.484375 C 67.632812 -74.890625 63.078125 -76.09375 57.921875 -76.09375 C 52.765625 -76.09375 48.238281 -74.863281 44.34375 -72.40625 C 40.445312 -69.945312 37.414062 -66.644531 35.25 -62.5 C 33.09375 -58.363281 32.015625 -53.835938 32.015625 -48.921875 C 32.015625 -43.765625 33.15625 -39.117188 35.4375 -34.984375 C 37.71875 -30.847656 40.863281 -27.640625 44.875 -25.359375 C 48.894531 -23.078125 53.363281 -21.9375 58.28125 -21.9375 Z M 58.28125 -21.9375 "/></g></g></g><g fill="#e2e8f0" fill-opacity="1"><g transform="translate(901.582645, 763.74865)"><g><path d="M 24.109375 -103.78125 C 21.222656 -103.78125 18.609375 -104.53125 16.265625 -106.03125 C 13.929688 -107.53125 12.101562 -109.566406 10.78125 -112.140625 C 9.46875 -114.722656 8.8125 -117.457031 8.8125 -120.34375 C 8.8125 -122.976562 9.5 -125.429688 10.875 -127.703125 C 12.257812 -129.984375 14.117188 -131.753906 16.453125 -133.015625 C 18.796875 -134.273438 21.347656 -134.90625 24.109375 -134.90625 C 26.984375 -134.90625 29.554688 -134.1875 31.828125 -132.75 C 34.109375 -131.3125 35.9375 -129.390625 37.3125 -126.984375 C 38.695312 -124.585938 39.390625 -121.953125 39.390625 -119.078125 C 39.390625 -116.316406 38.695312 -113.765625 37.3125 -111.421875 C 35.9375 -109.085938 34.078125 -107.226562 31.734375 -105.84375 C 29.398438 -104.46875 26.859375 -103.78125 24.109375 -103.78125 Z M 12.234375 -95.515625 L 36.15625 -95.515625 L 36.15625 0 L 12.234375 0 Z M 12.234375 -95.515625 "/></g></g></g><g fill="#e2e8f0" fill-opacity="1"><g transform="translate(940.79445, 763.74865)"><g><path d="M 35.96875 -95.515625 L 35.96875 -85.796875 C 40.882812 -89.878906 45.5625 -92.9375 50 -94.96875 C 54.4375 -97.007812 59.175781 -98.03125 64.21875 -98.03125 C 70.207031 -98.03125 75.691406 -96.710938 80.671875 -94.078125 C 85.648438 -91.441406 89.609375 -87.632812 92.546875 -82.65625 C 95.484375 -77.675781 96.953125 -71.890625 96.953125 -65.296875 L 96.953125 0 L 73.03125 0 L 73.03125 -45.15625 C 73.03125 -52.34375 72.671875 -58.09375 71.953125 -62.40625 C 71.234375 -66.726562 69.703125 -70.085938 67.359375 -72.484375 C 65.023438 -74.890625 61.519531 -76.09375 56.84375 -76.09375 C 52.882812 -76.09375 49.316406 -74.984375 46.140625 -72.765625 C 42.960938 -70.546875 40.472656 -67.273438 38.671875 -62.953125 C 36.867188 -58.640625 35.96875 -53.363281 35.96875 -47.125 L 35.96875 0 L 12.046875 0 L 12.046875 -95.515625 Z M 35.96875 -95.515625 "/></g></g></g><g fill="#e2e8f0" fill-opacity="1"><g transform="translate(1039.723442, 763.74865)"><g><path d="M 57.203125 2.515625 C 47.242188 2.515625 38.488281 0.296875 30.9375 -4.140625 C 23.382812 -8.578125 17.535156 -14.628906 13.390625 -22.296875 C 9.253906 -29.972656 7.1875 -38.488281 7.1875 -47.84375 C 7.1875 -56.601562 9.222656 -64.816406 13.296875 -72.484375 C 17.378906 -80.160156 23.164062 -86.335938 30.65625 -91.015625 C 38.15625 -95.691406 46.882812 -98.03125 56.84375 -98.03125 C 66.789062 -98.03125 75.601562 -95.8125 83.28125 -91.375 C 90.957031 -86.9375 96.921875 -80.789062 101.171875 -72.9375 C 105.429688 -65.082031 107.5625 -56.179688 107.5625 -46.234375 C 107.5625 -44.066406 107.503906 -42.265625 107.390625 -40.828125 L 30.40625 -40.828125 C 31.601562 -33.878906 34.628906 -28.453125 39.484375 -24.546875 C 44.335938 -20.648438 50.242188 -18.703125 57.203125 -18.703125 C 62.597656 -18.703125 67.300781 -19.539062 71.3125 -21.21875 C 75.332031 -22.90625 79.503906 -25.601562 83.828125 -29.3125 L 100.90625 -15.109375 C 90 -3.359375 75.429688 2.515625 57.203125 2.515625 Z M 83.46875 -59.71875 C 81.90625 -65.238281 78.753906 -69.613281 74.015625 -72.84375 C 69.273438 -76.082031 63.671875 -77.703125 57.203125 -77.703125 C 51.203125 -77.703125 45.984375 -76.203125 41.546875 -73.203125 C 37.109375 -70.210938 33.753906 -65.71875 31.484375 -59.71875 Z M 83.46875 -59.71875 "/></g></g></g><g fill="#e2e8f0" fill-opacity="1"><g transform="translate(613.617748, 856.798034)"><g><path d="M 1.828125 -15.953125 L 10.53125 -15.953125 L 10.53125 -13 L 4.859375 -13 L 4.859375 -10.09375 L 10.53125 -10.09375 L 10.53125 -7.203125 L 4.859375 -7.203125 L 4.859375 -2.984375 L 10.53125 -2.984375 L 10.53125 0 L 1.828125 0 Z M 1.828125 -15.953125 "/></g></g></g><g fill="#e2e8f0" fill-opacity="1"><g transform="translate(625.143218, 856.798034)"><g><path d="M 5.796875 0.40625 C 4.640625 0.40625 3.644531 0.117188 2.8125 -0.453125 C 1.976562 -1.023438 1.265625 -1.894531 0.671875 -3.0625 L 3.21875 -4.59375 C 3.59375 -3.90625 3.992188 -3.382812 4.421875 -3.03125 C 4.847656 -2.6875 5.328125 -2.515625 5.859375 -2.515625 C 6.203125 -2.515625 6.515625 -2.578125 6.796875 -2.703125 C 7.078125 -2.835938 7.296875 -3.019531 7.453125 -3.25 C 7.617188 -3.476562 7.703125 -3.726562 7.703125 -4 C 7.703125 -4.28125 7.644531 -4.53125 7.53125 -4.75 C 7.425781 -4.976562 7.269531 -5.195312 7.0625 -5.40625 C 6.851562 -5.625 6.539062 -5.90625 6.125 -6.25 C 4.914062 -7.269531 4.003906 -8.066406 3.390625 -8.640625 C 2.785156 -9.222656 2.304688 -9.8125 1.953125 -10.40625 C 1.597656 -11.007812 1.421875 -11.648438 1.421875 -12.328125 C 1.421875 -13.066406 1.613281 -13.742188 2 -14.359375 C 2.394531 -14.972656 2.929688 -15.457031 3.609375 -15.8125 C 4.285156 -16.175781 5.015625 -16.359375 5.796875 -16.359375 C 6.734375 -16.359375 7.5625 -16.140625 8.28125 -15.703125 C 9 -15.265625 9.710938 -14.628906 10.421875 -13.796875 L 8.21875 -11.9375 C 7.769531 -12.4375 7.347656 -12.8125 6.953125 -13.0625 C 6.566406 -13.3125 6.164062 -13.4375 5.75 -13.4375 C 5.351562 -13.4375 5.03125 -13.332031 4.78125 -13.125 C 4.53125 -12.914062 4.40625 -12.648438 4.40625 -12.328125 C 4.40625 -12.085938 4.476562 -11.859375 4.625 -11.640625 C 4.78125 -11.421875 5.023438 -11.160156 5.359375 -10.859375 C 5.691406 -10.566406 6.238281 -10.117188 7 -9.515625 C 7.90625 -8.785156 8.597656 -8.179688 9.078125 -7.703125 C 9.554688 -7.234375 9.941406 -6.707031 10.234375 -6.125 C 10.535156 -5.539062 10.6875 -4.875 10.6875 -4.125 C 10.6875 -3.257812 10.476562 -2.476562 10.0625 -1.78125 C 9.644531 -1.09375 9.066406 -0.554688 8.328125 -0.171875 C 7.585938 0.210938 6.742188 0.40625 5.796875 0.40625 Z M 5.796875 0.40625 "/></g></g></g><g fill="#e2e8f0" fill-opacity="1"><g transform="translate(636.690901, 856.798034)"><g><path d="M 3.09375 -12.96875 L 0.25 -12.96875 L 0.25 -15.953125 L 9.0625 -15.953125 L 9.0625 -12.96875 L 6.125 -12.96875 L 6.125 0 L 3.09375 0 Z M 3.09375 -12.96875 "/></g></g></g><g fill="#e2e8f0" fill-opacity="1"><g transform="translate(644.018518, 856.798034)"><g><path d="M 3.109375 0.3125 C 2.796875 0.3125 2.507812 0.234375 2.25 0.078125 C 1.988281 -0.078125 1.78125 -0.285156 1.625 -0.546875 C 1.476562 -0.804688 1.40625 -1.09375 1.40625 -1.40625 C 1.40625 -1.707031 1.476562 -1.988281 1.625 -2.25 C 1.78125 -2.507812 1.988281 -2.710938 2.25 -2.859375 C 2.507812 -3.015625 2.796875 -3.09375 3.109375 -3.09375 C 3.421875 -3.09375 3.707031 -3.015625 3.96875 -2.859375 C 4.226562 -2.710938 4.429688 -2.507812 4.578125 -2.25 C 4.722656 -1.988281 4.796875 -1.707031 4.796875 -1.40625 C 4.796875 -1.09375 4.722656 -0.804688 4.578125 -0.546875 C 4.429688 -0.285156 4.226562 -0.078125 3.96875 0.078125 C 3.707031 0.234375 3.421875 0.3125 3.109375 0.3125 Z M 3.109375 0.3125 "/></g></g></g><g fill="#e2e8f0" fill-opacity="1"><g transform="translate(650.236504, 856.798034)"><g/></g></g><g fill="#e2e8f0" fill-opacity="1"><g transform="translate(656.454491, 856.798034)"><g><path d="M 0.75 -11.9375 C 1.1875 -13.394531 1.875 -14.492188 2.8125 -15.234375 C 3.75 -15.984375 4.9375 -16.359375 6.375 -16.359375 C 7.363281 -16.359375 8.238281 -16.125 9 -15.65625 C 9.769531 -15.195312 10.359375 -14.585938 10.765625 -13.828125 C 11.171875 -13.078125 11.375 -12.273438 11.375 -11.421875 C 11.375 -10.660156 11.234375 -9.941406 10.953125 -9.265625 C 10.679688 -8.585938 10.269531 -7.894531 9.71875 -7.1875 C 9.175781 -6.476562 8.445312 -5.644531 7.53125 -4.6875 L 5.734375 -2.828125 L 11.515625 -2.828125 L 11.515625 0 L 0.46875 0 L 0.46875 -1.46875 L 5.40625 -6.484375 C 6.40625 -7.503906 7.15625 -8.394531 7.65625 -9.15625 C 8.15625 -9.925781 8.40625 -10.671875 8.40625 -11.390625 C 8.40625 -11.796875 8.3125 -12.160156 8.125 -12.484375 C 7.9375 -12.804688 7.675781 -13.0625 7.34375 -13.25 C 7.019531 -13.445312 6.660156 -13.546875 6.265625 -13.546875 C 4.929688 -13.546875 4.035156 -12.675781 3.578125 -10.9375 Z M 0.75 -11.9375 "/></g></g></g><g fill="#e2e8f0" fill-opacity="1"><g transform="translate(668.890453, 856.798034)"><g><path d="M 6.265625 0.375 C 4.222656 0.375 2.769531 -0.351562 1.90625 -1.8125 C 1.050781 -3.269531 0.625 -5.285156 0.625 -7.859375 C 0.625 -10.546875 1.070312 -12.632812 1.96875 -14.125 C 2.875 -15.613281 4.273438 -16.359375 6.171875 -16.359375 C 8.066406 -16.359375 9.476562 -15.65625 10.40625 -14.25 C 11.332031 -12.851562 11.796875 -10.722656 11.796875 -7.859375 C 11.796875 -5.109375 11.335938 -3.046875 10.421875 -1.671875 C 9.515625 -0.304688 8.128906 0.375 6.265625 0.375 Z M 6.265625 -2.421875 C 7.109375 -2.421875 7.742188 -2.878906 8.171875 -3.796875 C 8.609375 -4.710938 8.828125 -6.066406 8.828125 -7.859375 C 8.828125 -9.742188 8.613281 -11.144531 8.1875 -12.0625 C 7.757812 -12.976562 7.113281 -13.4375 6.25 -13.4375 C 5.601562 -13.4375 5.09375 -13.226562 4.71875 -12.8125 C 4.34375 -12.40625 4.078125 -11.796875 3.921875 -10.984375 C 3.765625 -10.179688 3.6875 -9.140625 3.6875 -7.859375 C 3.6875 -6.023438 3.894531 -4.660156 4.3125 -3.765625 C 4.738281 -2.867188 5.390625 -2.421875 6.265625 -2.421875 Z M 6.265625 -2.421875 "/></g></g></g><g fill="#e2e8f0" fill-opacity="1"><g transform="translate(681.326414, 856.798034)"><g><path d="M 0.75 -11.9375 C 1.1875 -13.394531 1.875 -14.492188 2.8125 -15.234375 C 3.75 -15.984375 4.9375 -16.359375 6.375 -16.359375 C 7.363281 -16.359375 8.238281 -16.125 9 -15.65625 C 9.769531 -15.195312 10.359375 -14.585938 10.765625 -13.828125 C 11.171875 -13.078125 11.375 -12.273438 11.375 -11.421875 C 11.375 -10.660156 11.234375 -9.941406 10.953125 -9.265625 C 10.679688 -8.585938 10.269531 -7.894531 9.71875 -7.1875 C 9.175781 -6.476562 8.445312 -5.644531 7.53125 -4.6875 L 5.734375 -2.828125 L 11.515625 -2.828125 L 11.515625 0 L 0.46875 0 L 0.46875 -1.46875 L 5.40625 -6.484375 C 6.40625 -7.503906 7.15625 -8.394531 7.65625 -9.15625 C 8.15625 -9.925781 8.40625 -10.671875 8.40625 -11.390625 C 8.40625 -11.796875 8.3125 -12.160156 8.125 -12.484375 C 7.9375 -12.804688 7.675781 -13.0625 7.34375 -13.25 C 7.019531 -13.445312 6.660156 -13.546875 6.265625 -13.546875 C 4.929688 -13.546875 4.035156 -12.675781 3.578125 -10.9375 Z M 0.75 -11.9375 "/></g></g></g><g fill="#e2e8f0" fill-opacity="1"><g transform="translate(693.762376, 856.798034)"><g><path d="M 10.375 -6.09375 L 11.796875 -6.09375 L 11.796875 -3.265625 L 10.375 -3.265625 L 10.375 0 L 7.421875 0 L 7.421875 -3.265625 L 0.4375 -3.265625 L 0.4375 -6.09375 L 7.359375 -16.359375 L 10.375 -16.359375 Z M 3.75 -6.09375 L 7.421875 -6.09375 L 7.421875 -11.4375 Z M 3.75 -6.09375 "/></g></g></g><g fill="#e2e8f0" fill-opacity="1"><g transform="translate(613.617748, 884.24808)"><g><path d="M 6.25 -15.953125 C 8.007812 -15.953125 9.394531 -15.640625 10.40625 -15.015625 C 11.425781 -14.398438 11.9375 -13.296875 11.9375 -11.703125 C 11.9375 -10.085938 11.40625 -8.96875 10.34375 -8.34375 C 9.28125 -7.726562 7.867188 -7.421875 6.109375 -7.421875 L 3.53125 -7.421875 L 3.53125 0 L 1.9375 0 L 1.9375 -15.953125 Z M 6.171875 -8.96875 C 7.035156 -8.96875 7.765625 -9.046875 8.359375 -9.203125 C 8.953125 -9.359375 9.414062 -9.632812 9.75 -10.03125 C 10.09375 -10.4375 10.265625 -10.992188 10.265625 -11.703125 C 10.265625 -12.710938 9.921875 -13.410156 9.234375 -13.796875 C 8.546875 -14.191406 7.585938 -14.390625 6.359375 -14.390625 L 3.53125 -14.390625 L 3.53125 -8.96875 Z M 6.171875 -8.96875 "/></g></g></g><g fill="#e2e8f0" fill-opacity="1"><g transform="translate(625.764861, 884.24808)"><g><path d="M 5.46875 -7.625 L 0.328125 -15.953125 L 2.171875 -15.953125 L 6.265625 -9.375 L 10.28125 -15.953125 L 12.125 -15.953125 L 7.0625 -7.625 L 7.0625 0 L 5.46875 0 Z M 5.46875 -7.625 "/></g></g></g><g fill="#e2e8f0" fill-opacity="1"><g transform="translate(638.223036, 884.24808)"><g><path d="M 3.953125 -14.390625 L 0.359375 -14.390625 L 0.359375 -15.953125 L 9.109375 -15.953125 L 9.109375 -14.390625 L 5.546875 -14.390625 L 5.546875 0 L 3.953125 0 Z M 3.953125 -14.390625 "/></g></g></g><g fill="#e2e8f0" fill-opacity="1"><g transform="translate(647.683248, 884.24808)"><g><path d="M 1.9375 -15.953125 L 3.53125 -15.953125 L 3.53125 -9.265625 L 11.671875 -9.265625 L 11.671875 -15.953125 L 13.265625 -15.953125 L 13.265625 0 L 11.671875 0 L 11.671875 -7.703125 L 3.53125 -7.703125 L 3.53125 0 L 1.9375 0 Z M 1.9375 -15.953125 "/></g></g></g><g fill="#e2e8f0" fill-opacity="1"><g transform="translate(662.850685, 884.24808)"><g><path d="M 9.671875 0.40625 C 8.066406 0.40625 6.625 0.03125 5.34375 -0.71875 C 4.0625 -1.476562 3.054688 -2.492188 2.328125 -3.765625 C 1.609375 -5.046875 1.25 -6.425781 1.25 -7.90625 C 1.25 -9.46875 1.617188 -10.890625 2.359375 -12.171875 C 3.097656 -13.460938 4.097656 -14.484375 5.359375 -15.234375 C 6.628906 -15.984375 8.019531 -16.359375 9.53125 -16.359375 C 11.113281 -16.359375 12.554688 -15.988281 13.859375 -15.25 C 15.160156 -14.519531 16.1875 -13.515625 16.9375 -12.234375 C 17.6875 -10.953125 18.0625 -9.53125 18.0625 -7.96875 C 18.0625 -6.4375 17.691406 -5.03125 16.953125 -3.75 C 16.210938 -2.46875 15.203125 -1.453125 13.921875 -0.703125 C 12.640625 0.0351562 11.222656 0.40625 9.671875 0.40625 Z M 9.625 -1.15625 C 10.851562 -1.15625 11.984375 -1.445312 13.015625 -2.03125 C 14.054688 -2.613281 14.878906 -3.425781 15.484375 -4.46875 C 16.085938 -5.519531 16.390625 -6.695312 16.390625 -8 C 16.390625 -9.300781 16.078125 -10.46875 15.453125 -11.5 C 14.828125 -12.539062 13.992188 -13.347656 12.953125 -13.921875 C 11.910156 -14.503906 10.800781 -14.796875 9.625 -14.796875 C 8.445312 -14.796875 7.34375 -14.503906 6.3125 -13.921875 C 5.289062 -13.335938 4.46875 -12.519531 3.84375 -11.46875 C 3.21875 -10.414062 2.90625 -9.226562 2.90625 -7.90625 C 2.90625 -6.632812 3.210938 -5.484375 3.828125 -4.453125 C 4.441406 -3.421875 5.257812 -2.613281 6.28125 -2.03125 C 7.3125 -1.445312 8.425781 -1.15625 9.625 -1.15625 Z M 9.625 -1.15625 "/></g></g></g><g fill="#e2e8f0" fill-opacity="1"><g transform="translate(682.148637, 884.24808)"><g><path d="M 12.84375 -15.953125 L 14.4375 -15.953125 L 14.4375 0 L 14.09375 0 L 3.53125 -12.0625 L 3.53125 0 L 1.9375 0 L 1.9375 -15.953125 L 2.265625 -15.953125 L 12.84375 -3.734375 Z M 12.84375 -15.953125 "/></g></g></g><g fill="#e2e8f0" fill-opacity="1"><g transform="translate(698.493054, 884.24808)"><g/></g></g><g fill="#e2e8f0" fill-opacity="1"><g transform="translate(704.644413, 884.24808)"><g><path d="M 3.0625 -6.953125 C 2.695312 -6.953125 2.382812 -7.082031 2.125 -7.34375 C 1.863281 -7.601562 1.734375 -7.914062 1.734375 -8.28125 C 1.734375 -8.519531 1.789062 -8.742188 1.90625 -8.953125 C 2.03125 -9.171875 2.191406 -9.34375 2.390625 -9.46875 C 2.597656 -9.601562 2.820312 -9.671875 3.0625 -9.671875 C 3.300781 -9.671875 3.519531 -9.601562 3.71875 -9.46875 C 3.914062 -9.34375 4.078125 -9.175781 4.203125 -8.96875 C 4.335938 -8.769531 4.40625 -8.539062 4.40625 -8.28125 C 4.40625 -7.914062 4.273438 -7.601562 4.015625 -7.34375 C 3.753906 -7.082031 3.4375 -6.953125 3.0625 -6.953125 Z M 3.0625 -6.953125 "/></g></g></g><g fill="#e2e8f0" fill-opacity="1"><g transform="translate(710.795772, 884.24808)"><g/></g></g><g fill="#e2e8f0" fill-opacity="1"><g transform="translate(716.947131, 884.24808)"><g><path d="M 18.28125 -7.671875 L 18.28125 -7.625 C 18.28125 -5.957031 17.941406 -4.523438 17.265625 -3.328125 C 16.597656 -2.128906 15.660156 -1.210938 14.453125 -0.578125 C 13.242188 0.0546875 11.847656 0.375 10.265625 0.375 C 8.484375 0.375 6.90625 -0.0078125 5.53125 -0.78125 C 4.164062 -1.550781 3.113281 -2.570312 2.375 -3.84375 C 1.632812 -5.113281 1.265625 -6.488281 1.265625 -7.96875 C 1.265625 -9.488281 1.632812 -10.882812 2.375 -12.15625 C 3.113281 -13.425781 4.144531 -14.441406 5.46875 -15.203125 C 6.800781 -15.972656 8.316406 -16.359375 10.015625 -16.359375 C 11.453125 -16.359375 12.753906 -16.097656 13.921875 -15.578125 C 15.097656 -15.066406 16.234375 -14.296875 17.328125 -13.265625 L 16.109375 -12.109375 C 15.222656 -12.984375 14.253906 -13.648438 13.203125 -14.109375 C 12.148438 -14.566406 11.101562 -14.796875 10.0625 -14.796875 C 8.726562 -14.796875 7.515625 -14.5 6.421875 -13.90625 C 5.335938 -13.3125 4.484375 -12.492188 3.859375 -11.453125 C 3.242188 -10.421875 2.9375 -9.273438 2.9375 -8.015625 C 2.9375 -6.804688 3.253906 -5.675781 3.890625 -4.625 C 4.523438 -3.570312 5.40625 -2.734375 6.53125 -2.109375 C 7.65625 -1.484375 8.914062 -1.171875 10.3125 -1.171875 C 11.332031 -1.171875 12.285156 -1.363281 13.171875 -1.75 C 14.066406 -2.132812 14.804688 -2.695312 15.390625 -3.4375 C 15.972656 -4.1875 16.335938 -5.078125 16.484375 -6.109375 L 11.390625 -6.109375 L 11.390625 -7.671875 Z M 18.28125 -7.671875 "/></g></g></g><g fill="#e2e8f0" fill-opacity="1"><g transform="translate(736.311699, 884.24808)"><g><path d="M 6.484375 -15.953125 C 8.304688 -15.953125 9.671875 -15.570312 10.578125 -14.8125 C 11.484375 -14.0625 11.9375 -13.023438 11.9375 -11.703125 C 11.9375 -10.753906 11.703125 -9.960938 11.234375 -9.328125 C 10.773438 -8.691406 10.128906 -8.210938 9.296875 -7.890625 C 8.472656 -7.578125 7.507812 -7.421875 6.40625 -7.421875 L 12.15625 0 L 10.171875 0 L 4.53125 -7.421875 L 3.53125 -7.421875 L 3.53125 0 L 1.9375 0 L 1.9375 -15.953125 Z M 6.40625 -8.96875 C 7.632812 -8.96875 8.582031 -9.191406 9.25 -9.640625 C 9.925781 -10.085938 10.265625 -10.773438 10.265625 -11.703125 C 10.265625 -12.523438 9.972656 -13.175781 9.390625 -13.65625 C 8.816406 -14.144531 7.953125 -14.390625 6.796875 -14.390625 L 3.53125 -14.390625 L 3.53125 -8.96875 Z M 6.40625 -8.96875 "/></g></g></g><g fill="#e2e8f0" fill-opacity="1"><g transform="translate(749.236141, 884.24808)"><g><path d="M 13.671875 0 L 11.21875 -5.25 L 4.21875 -5.25 L 1.78125 0 L 0.109375 0 L 7.546875 -15.953125 L 7.9375 -15.953125 L 15.328125 0 Z M 4.9375 -6.75 L 10.515625 -6.75 L 7.734375 -12.734375 Z M 4.9375 -6.75 "/></g></g></g><g fill="#e2e8f0" fill-opacity="1"><g transform="translate(764.670065, 884.24808)"><g><path d="M 6.25 -15.953125 C 8.007812 -15.953125 9.394531 -15.640625 10.40625 -15.015625 C 11.425781 -14.398438 11.9375 -13.296875 11.9375 -11.703125 C 11.9375 -10.085938 11.40625 -8.96875 10.34375 -8.34375 C 9.28125 -7.726562 7.867188 -7.421875 6.109375 -7.421875 L 3.53125 -7.421875 L 3.53125 0 L 1.9375 0 L 1.9375 -15.953125 Z M 6.171875 -8.96875 C 7.035156 -8.96875 7.765625 -9.046875 8.359375 -9.203125 C 8.953125 -9.359375 9.414062 -9.632812 9.75 -10.03125 C 10.09375 -10.4375 10.265625 -10.992188 10.265625 -11.703125 C 10.265625 -12.710938 9.921875 -13.410156 9.234375 -13.796875 C 8.546875 -14.191406 7.585938 -14.390625 6.359375 -14.390625 L 3.53125 -14.390625 L 3.53125 -8.96875 Z M 6.171875 -8.96875 "/></g></g></g><g fill="#e2e8f0" fill-opacity="1"><g transform="translate(777.261484, 884.24808)"><g><path d="M 1.9375 -15.953125 L 3.53125 -15.953125 L 3.53125 -9.265625 L 11.671875 -9.265625 L 11.671875 -15.953125 L 13.265625 -15.953125 L 13.265625 0 L 11.671875 0 L 11.671875 -7.703125 L 3.53125 -7.703125 L 3.53125 0 L 1.9375 0 Z M 1.9375 -15.953125 "/></g></g></g><g fill="#e2e8f0" fill-opacity="1"><g transform="translate(792.428921, 884.24808)"><g/></g></g><g fill="#e2e8f0" fill-opacity="1"><g transform="translate(798.58028, 884.24808)"><g><path d="M 3.0625 -6.953125 C 2.695312 -6.953125 2.382812 -7.082031 2.125 -7.34375 C 1.863281 -7.601562 1.734375 -7.914062 1.734375 -8.28125 C 1.734375 -8.519531 1.789062 -8.742188 1.90625 -8.953125 C 2.03125 -9.171875 2.191406 -9.34375 2.390625 -9.46875 C 2.597656 -9.601562 2.820312 -9.671875 3.0625 -9.671875 C 3.300781 -9.671875 3.519531 -9.601562 3.71875 -9.46875 C 3.914062 -9.34375 4.078125 -9.175781 4.203125 -8.96875 C 4.335938 -8.769531 4.40625 -8.539062 4.40625 -8.28125 C 4.40625 -7.914062 4.273438 -7.601562 4.015625 -7.34375 C 3.753906 -7.082031 3.4375 -6.953125 3.0625 -6.953125 Z M 3.0625 -6.953125 "/></g></g></g><g fill="#e2e8f0" fill-opacity="1"><g transform="translate(804.731639, 884.24808)"><g/></g></g><g fill="#e2e8f0" fill-opacity="1"><g transform="translate(810.882998, 884.24808)"><g><path d="M 13.671875 0 L 11.21875 -5.25 L 4.21875 -5.25 L 1.78125 0 L 0.109375 0 L 7.546875 -15.953125 L 7.9375 -15.953125 L 15.328125 0 Z M 4.9375 -6.75 L 10.515625 -6.75 L 7.734375 -12.734375 Z M 4.9375 -6.75 "/></g></g></g><g fill="#e2e8f0" fill-opacity="1"><g transform="translate(826.316933, 884.24808)"><g><path d="M 12.84375 -15.953125 L 14.4375 -15.953125 L 14.4375 0 L 14.09375 0 L 3.53125 -12.0625 L 3.53125 0 L 1.9375 0 L 1.9375 -15.953125 L 2.265625 -15.953125 L 12.84375 -3.734375 Z M 12.84375 -15.953125 "/></g></g></g><g fill="#e2e8f0" fill-opacity="1"><g transform="translate(842.661339, 884.24808)"><g><path d="M 13.671875 0 L 11.21875 -5.25 L 4.21875 -5.25 L 1.78125 0 L 0.109375 0 L 7.546875 -15.953125 L 7.9375 -15.953125 L 15.328125 0 Z M 4.9375 -6.75 L 10.515625 -6.75 L 7.734375 -12.734375 Z M 4.9375 -6.75 "/></g></g></g><g fill="#e2e8f0" fill-opacity="1"><g transform="translate(858.095251, 884.24808)"><g><path d="M 3.53125 -15.953125 L 3.53125 -1.5625 L 9.671875 -1.5625 L 9.671875 0 L 1.9375 0 L 1.9375 -15.953125 Z M 3.53125 -15.953125 "/></g></g></g><g fill="#e2e8f0" fill-opacity="1"><g transform="translate(866.355596, 884.24808)"><g><path d="M 5.46875 -7.625 L 0.328125 -15.953125 L 2.171875 -15.953125 L 6.265625 -9.375 L 10.28125 -15.953125 L 12.125 -15.953125 L 7.0625 -7.625 L 7.0625 0 L 5.46875 0 Z M 5.46875 -7.625 "/></g></g></g><g fill="#e2e8f0" fill-opacity="1"><g transform="translate(878.147312, 884.24808)"><g><path d="M 5.375 0.40625 C 4.3125 0.40625 3.394531 0.125 2.625 -0.4375 C 1.851562 -1 1.164062 -1.847656 0.5625 -2.984375 L 1.90625 -3.796875 C 2.382812 -2.921875 2.90625 -2.257812 3.46875 -1.8125 C 4.03125 -1.375 4.625 -1.15625 5.25 -1.15625 C 5.789062 -1.15625 6.285156 -1.273438 6.734375 -1.515625 C 7.191406 -1.765625 7.550781 -2.097656 7.8125 -2.515625 C 8.070312 -2.929688 8.203125 -3.378906 8.203125 -3.859375 C 8.203125 -4.347656 8.0625 -4.800781 7.78125 -5.21875 C 7.507812 -5.644531 7.113281 -6.082031 6.59375 -6.53125 C 6.082031 -6.988281 5.179688 -7.738281 3.890625 -8.78125 C 3.304688 -9.238281 2.851562 -9.644531 2.53125 -10 C 2.21875 -10.351562 1.976562 -10.734375 1.8125 -11.140625 C 1.65625 -11.546875 1.578125 -12.039062 1.578125 -12.625 C 1.578125 -13.332031 1.742188 -13.96875 2.078125 -14.53125 C 2.421875 -15.101562 2.890625 -15.550781 3.484375 -15.875 C 4.078125 -16.195312 4.726562 -16.359375 5.4375 -16.359375 C 6.332031 -16.359375 7.097656 -16.128906 7.734375 -15.671875 C 8.378906 -15.222656 9.007812 -14.582031 9.625 -13.75 L 8.328125 -12.75 C 7.992188 -13.195312 7.691406 -13.550781 7.421875 -13.8125 C 7.148438 -14.082031 6.847656 -14.296875 6.515625 -14.453125 C 6.179688 -14.617188 5.8125 -14.703125 5.40625 -14.703125 C 4.957031 -14.703125 4.566406 -14.609375 4.234375 -14.421875 C 3.910156 -14.242188 3.664062 -14 3.5 -13.6875 C 3.332031 -13.375 3.25 -13.039062 3.25 -12.6875 C 3.25 -12.1875 3.394531 -11.71875 3.6875 -11.28125 C 3.976562 -10.84375 4.410156 -10.414062 4.984375 -10 C 6.160156 -9.132812 7.070312 -8.421875 7.71875 -7.859375 C 8.363281 -7.296875 8.878906 -6.6875 9.265625 -6.03125 C 9.660156 -5.382812 9.859375 -4.671875 9.859375 -3.890625 C 9.859375 -3.148438 9.660156 -2.445312 9.265625 -1.78125 C 8.878906 -1.125 8.34375 -0.59375 7.65625 -0.1875 C 6.976562 0.207031 6.21875 0.40625 5.375 0.40625 Z M 5.375 0.40625 "/></g></g></g><g fill="#e2e8f0" fill-opacity="1"><g transform="translate(888.962161, 884.24808)"><g><path d="M 1.9375 -15.953125 L 3.53125 -15.953125 L 3.53125 0 L 1.9375 0 Z M 1.9375 -15.953125 "/></g></g></g><g fill="#e2e8f0" fill-opacity="1"><g transform="translate(894.402911, 884.24808)"><g><path d="M 5.375 0.40625 C 4.3125 0.40625 3.394531 0.125 2.625 -0.4375 C 1.851562 -1 1.164062 -1.847656 0.5625 -2.984375 L 1.90625 -3.796875 C 2.382812 -2.921875 2.90625 -2.257812 3.46875 -1.8125 C 4.03125 -1.375 4.625 -1.15625 5.25 -1.15625 C 5.789062 -1.15625 6.285156 -1.273438 6.734375 -1.515625 C 7.191406 -1.765625 7.550781 -2.097656 7.8125 -2.515625 C 8.070312 -2.929688 8.203125 -3.378906 8.203125 -3.859375 C 8.203125 -4.347656 8.0625 -4.800781 7.78125 -5.21875 C 7.507812 -5.644531 7.113281 -6.082031 6.59375 -6.53125 C 6.082031 -6.988281 5.179688 -7.738281 3.890625 -8.78125 C 3.304688 -9.238281 2.851562 -9.644531 2.53125 -10 C 2.21875 -10.351562 1.976562 -10.734375 1.8125 -11.140625 C 1.65625 -11.546875 1.578125 -12.039062 1.578125 -12.625 C 1.578125 -13.332031 1.742188 -13.96875 2.078125 -14.53125 C 2.421875 -15.101562 2.890625 -15.550781 3.484375 -15.875 C 4.078125 -16.195312 4.726562 -16.359375 5.4375 -16.359375 C 6.332031 -16.359375 7.097656 -16.128906 7.734375 -15.671875 C 8.378906 -15.222656 9.007812 -14.582031 9.625 -13.75 L 8.328125 -12.75 C 7.992188 -13.195312 7.691406 -13.550781 7.421875 -13.8125 C 7.148438 -14.082031 6.847656 -14.296875 6.515625 -14.453125 C 6.179688 -14.617188 5.8125 -14.703125 5.40625 -14.703125 C 4.957031 -14.703125 4.566406 -14.609375 4.234375 -14.421875 C 3.910156 -14.242188 3.664062 -14 3.5 -13.6875 C 3.332031 -13.375 3.25 -13.039062 3.25 -12.6875 C 3.25 -12.1875 3.394531 -11.71875 3.6875 -11.28125 C 3.976562 -10.84375 4.410156 -10.414062 4.984375 -10 C 6.160156 -9.132812 7.070312 -8.421875 7.71875 -7.859375 C 8.363281 -7.296875 8.878906 -6.6875 9.265625 -6.03125 C 9.660156 -5.382812 9.859375 -4.671875 9.859375 -3.890625 C 9.859375 -3.148438 9.660156 -2.445312 9.265625 -1.78125 C 8.878906 -1.125 8.34375 -0.59375 7.65625 -0.1875 C 6.976562 0.207031 6.21875 0.40625 5.375 0.40625 Z M 5.375 0.40625 "/></g></g></g><g fill="#e2e8f0" fill-opacity="1"><g transform="translate(474.671301, 857.18681)"><g><path d="M 5.375 0.40625 C 4.3125 0.40625 3.394531 0.125 2.625 -0.4375 C 1.851562 -1 1.164062 -1.847656 0.5625 -2.984375 L 1.90625 -3.796875 C 2.382812 -2.921875 2.90625 -2.257812 3.46875 -1.8125 C 4.03125 -1.375 4.625 -1.15625 5.25 -1.15625 C 5.789062 -1.15625 6.285156 -1.273438 6.734375 -1.515625 C 7.191406 -1.765625 7.550781 -2.097656 7.8125 -2.515625 C 8.070312 -2.929688 8.203125 -3.378906 8.203125 -3.859375 C 8.203125 -4.347656 8.0625 -4.800781 7.78125 -5.21875 C 7.507812 -5.644531 7.113281 -6.082031 6.59375 -6.53125 C 6.082031 -6.988281 5.179688 -7.738281 3.890625 -8.78125 C 3.304688 -9.238281 2.851562 -9.644531 2.53125 -10 C 2.21875 -10.351562 1.976562 -10.734375 1.8125 -11.140625 C 1.65625 -11.546875 1.578125 -12.039062 1.578125 -12.625 C 1.578125 -13.332031 1.742188 -13.96875 2.078125 -14.53125 C 2.421875 -15.101562 2.890625 -15.550781 3.484375 -15.875 C 4.078125 -16.195312 4.726562 -16.359375 5.4375 -16.359375 C 6.332031 -16.359375 7.097656 -16.128906 7.734375 -15.671875 C 8.378906 -15.222656 9.007812 -14.582031 9.625 -13.75 L 8.328125 -12.75 C 7.992188 -13.195312 7.691406 -13.550781 7.421875 -13.8125 C 7.148438 -14.082031 6.847656 -14.296875 6.515625 -14.453125 C 6.179688 -14.617188 5.8125 -14.703125 5.40625 -14.703125 C 4.957031 -14.703125 4.566406 -14.609375 4.234375 -14.421875 C 3.910156 -14.242188 3.664062 -14 3.5 -13.6875 C 3.332031 -13.375 3.25 -13.039062 3.25 -12.6875 C 3.25 -12.1875 3.394531 -11.71875 3.6875 -11.28125 C 3.976562 -10.84375 4.410156 -10.414062 4.984375 -10 C 6.160156 -9.132812 7.070312 -8.421875 7.71875 -7.859375 C 8.363281 -7.296875 8.878906 -6.6875 9.265625 -6.03125 C 9.660156 -5.382812 9.859375 -4.671875 9.859375 -3.890625 C 9.859375 -3.148438 9.660156 -2.445312 9.265625 -1.78125 C 8.878906 -1.125 8.34375 -0.59375 7.65625 -0.1875 C 6.976562 0.207031 6.21875 0.40625 5.375 0.40625 Z M 5.375 0.40625 "/></g></g></g><g fill="#e2e8f0" fill-opacity="1"><g transform="translate(485.48615, 857.18681)"><g><path d="M 3.953125 -14.390625 L 0.359375 -14.390625 L 0.359375 -15.953125 L 9.109375 -15.953125 L 9.109375 -14.390625 L 5.546875 -14.390625 L 5.546875 0 L 3.953125 0 Z M 3.953125 -14.390625 "/></g></g></g><g fill="#e2e8f0" fill-opacity="1"><g transform="translate(493.724533, 857.18681)"><g><path d="M 13.671875 0 L 11.21875 -5.25 L 4.21875 -5.25 L 1.78125 0 L 0.109375 0 L 7.546875 -15.953125 L 7.9375 -15.953125 L 15.328125 0 Z M 4.9375 -6.75 L 10.515625 -6.75 L 7.734375 -12.734375 Z M 4.9375 -6.75 "/></g></g></g><g fill="#e2e8f0" fill-opacity="1"><g transform="translate(507.936629, 857.18681)"><g><path d="M 3.953125 -14.390625 L 0.359375 -14.390625 L 0.359375 -15.953125 L 9.109375 -15.953125 L 9.109375 -14.390625 L 5.546875 -14.390625 L 5.546875 0 L 3.953125 0 Z M 3.953125 -14.390625 "/></g></g></g><g fill="#e2e8f0" fill-opacity="1"><g transform="translate(517.396841, 857.18681)"><g><path d="M 1.9375 -15.953125 L 3.53125 -15.953125 L 3.53125 0 L 1.9375 0 Z M 1.9375 -15.953125 "/></g></g></g><g fill="#e2e8f0" fill-opacity="1"><g transform="translate(522.837579, 857.18681)"><g><path d="M 9.84375 0.375 C 8.113281 0.375 6.59375 0.00390625 5.28125 -0.734375 C 3.976562 -1.484375 2.976562 -2.5 2.28125 -3.78125 C 1.59375 -5.0625 1.25 -6.488281 1.25 -8.0625 C 1.25 -9.613281 1.617188 -11.019531 2.359375 -12.28125 C 3.097656 -13.539062 4.125 -14.535156 5.4375 -15.265625 C 6.75 -15.992188 8.21875 -16.359375 9.84375 -16.359375 C 11.289062 -16.359375 12.609375 -16.070312 13.796875 -15.5 C 14.984375 -14.925781 15.960938 -14.09375 16.734375 -13 L 15.46875 -12.046875 C 14.78125 -12.941406 13.957031 -13.625 13 -14.09375 C 12.050781 -14.5625 11.003906 -14.796875 9.859375 -14.796875 C 8.597656 -14.796875 7.4375 -14.503906 6.375 -13.921875 C 5.320312 -13.335938 4.476562 -12.519531 3.84375 -11.46875 C 3.21875 -10.425781 2.90625 -9.25 2.90625 -7.9375 C 2.90625 -6.632812 3.210938 -5.460938 3.828125 -4.421875 C 4.441406 -3.378906 5.285156 -2.5625 6.359375 -1.96875 C 7.429688 -1.382812 8.628906 -1.09375 9.953125 -1.09375 C 11.066406 -1.09375 12.09375 -1.3125 13.03125 -1.75 C 13.96875 -2.195312 14.804688 -2.859375 15.546875 -3.734375 L 16.8125 -2.78125 C 16 -1.738281 14.992188 -0.953125 13.796875 -0.421875 C 12.609375 0.109375 11.289062 0.375 9.84375 0.375 Z M 9.84375 0.375 "/></g></g></g><g fill="#e2e8f0" fill-opacity="1"><g transform="translate(440.979897, 881.186808)"><g><path d="M 13.671875 0 L 11.21875 -5.25 L 4.21875 -5.25 L 1.78125 0 L 0.109375 0 L 7.546875 -15.953125 L 7.9375 -15.953125 L 15.328125 0 Z M 4.9375 -6.75 L 10.515625 -6.75 L 7.734375 -12.734375 Z M 4.9375 -6.75 "/></g></g></g><g fill="#e2e8f0" fill-opacity="1"><g transform="translate(456.413822, 881.186808)"><g><path d="M 12.84375 -15.953125 L 14.4375 -15.953125 L 14.4375 0 L 14.09375 0 L 3.53125 -12.0625 L 3.53125 0 L 1.9375 0 L 1.9375 -15.953125 L 2.265625 -15.953125 L 12.84375 -3.734375 Z M 12.84375 -15.953125 "/></g></g></g><g fill="#e2e8f0" fill-opacity="1"><g transform="translate(472.758238, 881.186808)"><g><path d="M 13.671875 0 L 11.21875 -5.25 L 4.21875 -5.25 L 1.78125 0 L 0.109375 0 L 7.546875 -15.953125 L 7.9375 -15.953125 L 15.328125 0 Z M 4.9375 -6.75 L 10.515625 -6.75 L 7.734375 -12.734375 Z M 4.9375 -6.75 "/></g></g></g><g fill="#e2e8f0" fill-opacity="1"><g transform="translate(488.192163, 881.186808)"><g><path d="M 3.53125 -15.953125 L 3.53125 -1.5625 L 9.671875 -1.5625 L 9.671875 0 L 1.9375 0 L 1.9375 -15.953125 Z M 3.53125 -15.953125 "/></g></g></g><g fill="#e2e8f0" fill-opacity="1"><g transform="translate(496.452485, 881.186808)"><g><path d="M 5.46875 -7.625 L 0.328125 -15.953125 L 2.171875 -15.953125 L 6.265625 -9.375 L 10.28125 -15.953125 L 12.125 -15.953125 L 7.0625 -7.625 L 7.0625 0 L 5.46875 0 Z M 5.46875 -7.625 "/></g></g></g><g fill="#e2e8f0" fill-opacity="1"><g transform="translate(508.244213, 881.186808)"><g><path d="M 5.375 0.40625 C 4.3125 0.40625 3.394531 0.125 2.625 -0.4375 C 1.851562 -1 1.164062 -1.847656 0.5625 -2.984375 L 1.90625 -3.796875 C 2.382812 -2.921875 2.90625 -2.257812 3.46875 -1.8125 C 4.03125 -1.375 4.625 -1.15625 5.25 -1.15625 C 5.789062 -1.15625 6.285156 -1.273438 6.734375 -1.515625 C 7.191406 -1.765625 7.550781 -2.097656 7.8125 -2.515625 C 8.070312 -2.929688 8.203125 -3.378906 8.203125 -3.859375 C 8.203125 -4.347656 8.0625 -4.800781 7.78125 -5.21875 C 7.507812 -5.644531 7.113281 -6.082031 6.59375 -6.53125 C 6.082031 -6.988281 5.179688 -7.738281 3.890625 -8.78125 C 3.304688 -9.238281 2.851562 -9.644531 2.53125 -10 C 2.21875 -10.351562 1.976562 -10.734375 1.8125 -11.140625 C 1.65625 -11.546875 1.578125 -12.039062 1.578125 -12.625 C 1.578125 -13.332031 1.742188 -13.96875 2.078125 -14.53125 C 2.421875 -15.101562 2.890625 -15.550781 3.484375 -15.875 C 4.078125 -16.195312 4.726562 -16.359375 5.4375 -16.359375 C 6.332031 -16.359375 7.097656 -16.128906 7.734375 -15.671875 C 8.378906 -15.222656 9.007812 -14.582031 9.625 -13.75 L 8.328125 -12.75 C 7.992188 -13.195312 7.691406 -13.550781 7.421875 -13.8125 C 7.148438 -14.082031 6.847656 -14.296875 6.515625 -14.453125 C 6.179688 -14.617188 5.8125 -14.703125 5.40625 -14.703125 C 4.957031 -14.703125 4.566406 -14.609375 4.234375 -14.421875 C 3.910156 -14.242188 3.664062 -14 3.5 -13.6875 C 3.332031 -13.375 3.25 -13.039062 3.25 -12.6875 C 3.25 -12.1875 3.394531 -11.71875 3.6875 -11.28125 C 3.976562 -10.84375 4.410156 -10.414062 4.984375 -10 C 6.160156 -9.132812 7.070312 -8.421875 7.71875 -7.859375 C 8.363281 -7.296875 8.878906 -6.6875 9.265625 -6.03125 C 9.660156 -5.382812 9.859375 -4.671875 9.859375 -3.890625 C 9.859375 -3.148438 9.660156 -2.445312 9.265625 -1.78125 C 8.878906 -1.125 8.34375 -0.59375 7.65625 -0.1875 C 6.976562 0.207031 6.21875 0.40625 5.375 0.40625 Z M 5.375 0.40625 "/></g></g></g><g fill="#e2e8f0" fill-opacity="1"><g transform="translate(519.059062, 881.186808)"><g><path d="M 1.9375 -15.953125 L 3.53125 -15.953125 L 3.53125 0 L 1.9375 0 Z M 1.9375 -15.953125 "/></g></g></g><g fill="#e2e8f0" fill-opacity="1"><g transform="translate(524.4998, 881.186808)"><g><path d="M 5.375 0.40625 C 4.3125 0.40625 3.394531 0.125 2.625 -0.4375 C 1.851562 -1 1.164062 -1.847656 0.5625 -2.984375 L 1.90625 -3.796875 C 2.382812 -2.921875 2.90625 -2.257812 3.46875 -1.8125 C 4.03125 -1.375 4.625 -1.15625 5.25 -1.15625 C 5.789062 -1.15625 6.285156 -1.273438 6.734375 -1.515625 C 7.191406 -1.765625 7.550781 -2.097656 7.8125 -2.515625 C 8.070312 -2.929688 8.203125 -3.378906 8.203125 -3.859375 C 8.203125 -4.347656 8.0625 -4.800781 7.78125 -5.21875 C 7.507812 -5.644531 7.113281 -6.082031 6.59375 -6.53125 C 6.082031 -6.988281 5.179688 -7.738281 3.890625 -8.78125 C 3.304688 -9.238281 2.851562 -9.644531 2.53125 -10 C 2.21875 -10.351562 1.976562 -10.734375 1.8125 -11.140625 C 1.65625 -11.546875 1.578125 -12.039062 1.578125 -12.625 C 1.578125 -13.332031 1.742188 -13.96875 2.078125 -14.53125 C 2.421875 -15.101562 2.890625 -15.550781 3.484375 -15.875 C 4.078125 -16.195312 4.726562 -16.359375 5.4375 -16.359375 C 6.332031 -16.359375 7.097656 -16.128906 7.734375 -15.671875 C 8.378906 -15.222656 9.007812 -14.582031 9.625 -13.75 L 8.328125 -12.75 C 7.992188 -13.195312 7.691406 -13.550781 7.421875 -13.8125 C 7.148438 -14.082031 6.847656 -14.296875 6.515625 -14.453125 C 6.179688 -14.617188 5.8125 -14.703125 5.40625 -14.703125 C 4.957031 -14.703125 4.566406 -14.609375 4.234375 -14.421875 C 3.910156 -14.242188 3.664062 -14 3.5 -13.6875 C 3.332031 -13.375 3.25 -13.039062 3.25 -12.6875 C 3.25 -12.1875 3.394531 -11.71875 3.6875 -11.28125 C 3.976562 -10.84375 4.410156 -10.414062 4.984375 -10 C 6.160156 -9.132812 7.070312 -8.421875 7.71875 -7.859375 C 8.363281 -7.296875 8.878906 -6.6875 9.265625 -6.03125 C 9.660156 -5.382812 9.859375 -4.671875 9.859375 -3.890625 C 9.859375 -3.148438 9.660156 -2.445312 9.265625 -1.78125 C 8.878906 -1.125 8.34375 -0.59375 7.65625 -0.1875 C 6.976562 0.207031 6.21875 0.40625 5.375 0.40625 Z M 5.375 0.40625 "/></g></g></g><g fill="#e2e8f0" fill-opacity="1"><g transform="translate(535.314649, 881.186808)"><g><path d="M 2.796875 0.3125 C 2.429688 0.3125 2.117188 0.179688 1.859375 -0.078125 C 1.597656 -0.347656 1.46875 -0.671875 1.46875 -1.046875 C 1.46875 -1.285156 1.523438 -1.503906 1.640625 -1.703125 C 1.765625 -1.910156 1.925781 -2.078125 2.125 -2.203125 C 2.332031 -2.335938 2.554688 -2.40625 2.796875 -2.40625 C 3.035156 -2.40625 3.253906 -2.34375 3.453125 -2.21875 C 3.648438 -2.101562 3.8125 -1.941406 3.9375 -1.734375 C 4.0625 -1.523438 4.125 -1.296875 4.125 -1.046875 C 4.125 -0.671875 3.992188 -0.347656 3.734375 -0.078125 C 3.484375 0.179688 3.171875 0.3125 2.796875 0.3125 Z M 2.796875 0.3125 "/></g></g></g><g fill="#e2e8f0" fill-opacity="1"><g transform="translate(396.858808, 905.186806)"><g><path d="M 5.859375 -15.953125 C 7.878906 -15.953125 9.597656 -15.644531 11.015625 -15.03125 C 12.441406 -14.414062 13.523438 -13.5 14.265625 -12.28125 C 15.015625 -11.070312 15.390625 -9.578125 15.390625 -7.796875 C 15.390625 -5.253906 14.664062 -3.316406 13.21875 -1.984375 C 11.78125 -0.660156 9.570312 0 6.59375 0 L 1.9375 0 L 1.9375 -15.953125 Z M 6.59375 -1.5625 C 8.925781 -1.5625 10.695312 -2.0625 11.90625 -3.0625 C 13.125 -4.070312 13.734375 -5.644531 13.734375 -7.78125 C 13.734375 -10.0625 13.046875 -11.734375 11.671875 -12.796875 C 10.304688 -13.859375 8.367188 -14.390625 5.859375 -14.390625 L 3.53125 -14.390625 L 3.53125 -1.5625 Z M 6.59375 -1.5625 "/></g></g></g><g fill="#e2e8f0" fill-opacity="1"><g transform="translate(413.491912, 905.186806)"><g><path d="M 1.9375 -15.953125 L 11.046875 -15.953125 L 11.046875 -14.421875 L 3.53125 -14.421875 L 3.53125 -9.375 L 11.046875 -9.375 L 11.046875 -7.859375 L 3.53125 -7.859375 L 3.53125 -1.5625 L 11.046875 -1.5625 L 11.046875 0 L 1.9375 0 Z M 1.9375 -15.953125 "/></g></g></g><g fill="#e2e8f0" fill-opacity="1"><g transform="translate(425.372698, 905.186806)"><g><path d="M 6.25 -15.953125 C 8.007812 -15.953125 9.394531 -15.640625 10.40625 -15.015625 C 11.425781 -14.398438 11.9375 -13.296875 11.9375 -11.703125 C 11.9375 -10.085938 11.40625 -8.96875 10.34375 -8.34375 C 9.28125 -7.726562 7.867188 -7.421875 6.109375 -7.421875 L 3.53125 -7.421875 L 3.53125 0 L 1.9375 0 L 1.9375 -15.953125 Z M 6.171875 -8.96875 C 7.035156 -8.96875 7.765625 -9.046875 8.359375 -9.203125 C 8.953125 -9.359375 9.414062 -9.632812 9.75 -10.03125 C 10.09375 -10.4375 10.265625 -10.992188 10.265625 -11.703125 C 10.265625 -12.710938 9.921875 -13.410156 9.234375 -13.796875 C 8.546875 -14.191406 7.585938 -14.390625 6.359375 -14.390625 L 3.53125 -14.390625 L 3.53125 -8.96875 Z M 6.171875 -8.96875 "/></g></g></g><g fill="#e2e8f0" fill-opacity="1"><g transform="translate(437.964116, 905.186806)"><g><path d="M 1.9375 -15.953125 L 11.046875 -15.953125 L 11.046875 -14.421875 L 3.53125 -14.421875 L 3.53125 -9.375 L 11.046875 -9.375 L 11.046875 -7.859375 L 3.53125 -7.859375 L 3.53125 -1.5625 L 11.046875 -1.5625 L 11.046875 0 L 1.9375 0 Z M 1.9375 -15.953125 "/></g></g></g><g fill="#e2e8f0" fill-opacity="1"><g transform="translate(449.844902, 905.186806)"><g><path d="M 12.84375 -15.953125 L 14.4375 -15.953125 L 14.4375 0 L 14.09375 0 L 3.53125 -12.0625 L 3.53125 0 L 1.9375 0 L 1.9375 -15.953125 L 2.265625 -15.953125 L 12.84375 -3.734375 Z M 12.84375 -15.953125 "/></g></g></g><g fill="#e2e8f0" fill-opacity="1"><g transform="translate(466.189319, 905.186806)"><g><path d="M 5.859375 -15.953125 C 7.878906 -15.953125 9.597656 -15.644531 11.015625 -15.03125 C 12.441406 -14.414062 13.523438 -13.5 14.265625 -12.28125 C 15.015625 -11.070312 15.390625 -9.578125 15.390625 -7.796875 C 15.390625 -5.253906 14.664062 -3.316406 13.21875 -1.984375 C 11.78125 -0.660156 9.570312 0 6.59375 0 L 1.9375 0 L 1.9375 -15.953125 Z M 6.59375 -1.5625 C 8.925781 -1.5625 10.695312 -2.0625 11.90625 -3.0625 C 13.125 -4.070312 13.734375 -5.644531 13.734375 -7.78125 C 13.734375 -10.0625 13.046875 -11.734375 11.671875 -12.796875 C 10.304688 -13.859375 8.367188 -14.390625 5.859375 -14.390625 L 3.53125 -14.390625 L 3.53125 -1.5625 Z M 6.59375 -1.5625 "/></g></g></g><g fill="#e2e8f0" fill-opacity="1"><g transform="translate(482.822423, 905.186806)"><g><path d="M 1.9375 -15.953125 L 11.046875 -15.953125 L 11.046875 -14.421875 L 3.53125 -14.421875 L 3.53125 -9.375 L 11.046875 -9.375 L 11.046875 -7.859375 L 3.53125 -7.859375 L 3.53125 -1.5625 L 11.046875 -1.5625 L 11.046875 0 L 1.9375 0 Z M 1.9375 -15.953125 "/></g></g></g><g fill="#e2e8f0" fill-opacity="1"><g transform="translate(494.703209, 905.186806)"><g><path d="M 12.84375 -15.953125 L 14.4375 -15.953125 L 14.4375 0 L 14.09375 0 L 3.53125 -12.0625 L 3.53125 0 L 1.9375 0 L 1.9375 -15.953125 L 2.265625 -15.953125 L 12.84375 -3.734375 Z M 12.84375 -15.953125 "/></g></g></g><g fill="#e2e8f0" fill-opacity="1"><g transform="translate(511.047626, 905.186806)"><g><path d="M 9.84375 0.375 C 8.113281 0.375 6.59375 0.00390625 5.28125 -0.734375 C 3.976562 -1.484375 2.976562 -2.5 2.28125 -3.78125 C 1.59375 -5.0625 1.25 -6.488281 1.25 -8.0625 C 1.25 -9.613281 1.617188 -11.019531 2.359375 -12.28125 C 3.097656 -13.539062 4.125 -14.535156 5.4375 -15.265625 C 6.75 -15.992188 8.21875 -16.359375 9.84375 -16.359375 C 11.289062 -16.359375 12.609375 -16.070312 13.796875 -15.5 C 14.984375 -14.925781 15.960938 -14.09375 16.734375 -13 L 15.46875 -12.046875 C 14.78125 -12.941406 13.957031 -13.625 13 -14.09375 C 12.050781 -14.5625 11.003906 -14.796875 9.859375 -14.796875 C 8.597656 -14.796875 7.4375 -14.503906 6.375 -13.921875 C 5.320312 -13.335938 4.476562 -12.519531 3.84375 -11.46875 C 3.21875 -10.425781 2.90625 -9.25 2.90625 -7.9375 C 2.90625 -6.632812 3.210938 -5.460938 3.828125 -4.421875 C 4.441406 -3.378906 5.285156 -2.5625 6.359375 -1.96875 C 7.429688 -1.382812 8.628906 -1.09375 9.953125 -1.09375 C 11.066406 -1.09375 12.09375 -1.3125 13.03125 -1.75 C 13.96875 -2.195312 14.804688 -2.859375 15.546875 -3.734375 L 16.8125 -2.78125 C 16 -1.738281 14.992188 -0.953125 13.796875 -0.421875 C 12.609375 0.109375 11.289062 0.375 9.84375 0.375 Z M 9.84375 0.375 "/></g></g></g><g fill="#e2e8f0" fill-opacity="1"><g transform="translate(528.457739, 905.186806)"><g><path d="M 5.46875 -7.625 L 0.328125 -15.953125 L 2.171875 -15.953125 L 6.265625 -9.375 L 10.28125 -15.953125 L 12.125 -15.953125 L 7.0625 -7.625 L 7.0625 0 L 5.46875 0 Z M 5.46875 -7.625 "/></g></g></g><g fill="#e2e8f0" fill-opacity="1"><g transform="translate(388.679121, 929.186804)"><g><path d="M 1.9375 -15.953125 L 3.53125 -15.953125 L 3.53125 0 L 1.9375 0 Z M 1.9375 -15.953125 "/></g></g></g><g fill="#e2e8f0" fill-opacity="1"><g transform="translate(394.119859, 929.186804)"><g><path d="M 12.84375 -15.953125 L 14.4375 -15.953125 L 14.4375 0 L 14.09375 0 L 3.53125 -12.0625 L 3.53125 0 L 1.9375 0 L 1.9375 -15.953125 L 2.265625 -15.953125 L 12.84375 -3.734375 Z M 12.84375 -15.953125 "/></g></g></g><g fill="#e2e8f0" fill-opacity="1"><g transform="translate(410.464275, 929.186804)"><g><path d="M 3.953125 -14.390625 L 0.359375 -14.390625 L 0.359375 -15.953125 L 9.109375 -15.953125 L 9.109375 -14.390625 L 5.546875 -14.390625 L 5.546875 0 L 3.953125 0 Z M 3.953125 -14.390625 "/></g></g></g><g fill="#e2e8f0" fill-opacity="1"><g transform="translate(419.924487, 929.186804)"><g><path d="M 1.9375 -15.953125 L 11.046875 -15.953125 L 11.046875 -14.421875 L 3.53125 -14.421875 L 3.53125 -9.375 L 11.046875 -9.375 L 11.046875 -7.859375 L 3.53125 -7.859375 L 3.53125 -1.5625 L 11.046875 -1.5625 L 11.046875 0 L 1.9375 0 Z M 1.9375 -15.953125 "/></g></g></g><g fill="#e2e8f0" fill-opacity="1"><g transform="translate(431.805273, 929.186804)"><g><path d="M 3.53125 -15.953125 L 3.53125 -1.5625 L 9.671875 -1.5625 L 9.671875 0 L 1.9375 0 L 1.9375 -15.953125 Z M 3.53125 -15.953125 "/></g></g></g><g fill="#e2e8f0" fill-opacity="1"><g transform="translate(442.064946, 929.186804)"><g><path d="M 3.53125 -15.953125 L 3.53125 -1.5625 L 9.671875 -1.5625 L 9.671875 0 L 1.9375 0 L 1.9375 -15.953125 Z M 3.53125 -15.953125 "/></g></g></g><g fill="#e2e8f0" fill-opacity="1"><g transform="translate(452.324619, 929.186804)"><g><path d="M 1.9375 -15.953125 L 3.53125 -15.953125 L 3.53125 0 L 1.9375 0 Z M 1.9375 -15.953125 "/></g></g></g><g fill="#e2e8f0" fill-opacity="1"><g transform="translate(457.765357, 929.186804)"><g><path d="M 18.28125 -7.671875 L 18.28125 -7.625 C 18.28125 -5.957031 17.941406 -4.523438 17.265625 -3.328125 C 16.597656 -2.128906 15.660156 -1.210938 14.453125 -0.578125 C 13.242188 0.0546875 11.847656 0.375 10.265625 0.375 C 8.484375 0.375 6.90625 -0.0078125 5.53125 -0.78125 C 4.164062 -1.550781 3.113281 -2.570312 2.375 -3.84375 C 1.632812 -5.113281 1.265625 -6.488281 1.265625 -7.96875 C 1.265625 -9.488281 1.632812 -10.882812 2.375 -12.15625 C 3.113281 -13.425781 4.144531 -14.441406 5.46875 -15.203125 C 6.800781 -15.972656 8.316406 -16.359375 10.015625 -16.359375 C 11.453125 -16.359375 12.753906 -16.097656 13.921875 -15.578125 C 15.097656 -15.066406 16.234375 -14.296875 17.328125 -13.265625 L 16.109375 -12.109375 C 15.222656 -12.984375 14.253906 -13.648438 13.203125 -14.109375 C 12.148438 -14.566406 11.101562 -14.796875 10.0625 -14.796875 C 8.726562 -14.796875 7.515625 -14.5 6.421875 -13.90625 C 5.335938 -13.3125 4.484375 -12.492188 3.859375 -11.453125 C 3.242188 -10.421875 2.9375 -9.273438 2.9375 -8.015625 C 2.9375 -6.804688 3.253906 -5.675781 3.890625 -4.625 C 4.523438 -3.570312 5.40625 -2.734375 6.53125 -2.109375 C 7.65625 -1.484375 8.914062 -1.171875 10.3125 -1.171875 C 11.332031 -1.171875 12.285156 -1.363281 13.171875 -1.75 C 14.066406 -2.132812 14.804688 -2.695312 15.390625 -3.4375 C 15.972656 -4.1875 16.335938 -5.078125 16.484375 -6.109375 L 11.390625 -6.109375 L 11.390625 -7.671875 Z M 18.28125 -7.671875 "/></g></g></g><g fill="#e2e8f0" fill-opacity="1"><g transform="translate(477.129926, 929.186804)"><g><path d="M 1.9375 -15.953125 L 11.046875 -15.953125 L 11.046875 -14.421875 L 3.53125 -14.421875 L 3.53125 -9.375 L 11.046875 -9.375 L 11.046875 -7.859375 L 3.53125 -7.859375 L 3.53125 -1.5625 L 11.046875 -1.5625 L 11.046875 0 L 1.9375 0 Z M 1.9375 -15.953125 "/></g></g></g><g fill="#e2e8f0" fill-opacity="1"><g transform="translate(489.010712, 929.186804)"><g><path d="M 12.84375 -15.953125 L 14.4375 -15.953125 L 14.4375 0 L 14.09375 0 L 3.53125 -12.0625 L 3.53125 0 L 1.9375 0 L 1.9375 -15.953125 L 2.265625 -15.953125 L 12.84375 -3.734375 Z M 12.84375 -15.953125 "/></g></g></g><g fill="#e2e8f0" fill-opacity="1"><g transform="translate(505.355128, 929.186804)"><g><path d="M 9.84375 0.375 C 8.113281 0.375 6.59375 0.00390625 5.28125 -0.734375 C 3.976562 -1.484375 2.976562 -2.5 2.28125 -3.78125 C 1.59375 -5.0625 1.25 -6.488281 1.25 -8.0625 C 1.25 -9.613281 1.617188 -11.019531 2.359375 -12.28125 C 3.097656 -13.539062 4.125 -14.535156 5.4375 -15.265625 C 6.75 -15.992188 8.21875 -16.359375 9.84375 -16.359375 C 11.289062 -16.359375 12.609375 -16.070312 13.796875 -15.5 C 14.984375 -14.925781 15.960938 -14.09375 16.734375 -13 L 15.46875 -12.046875 C 14.78125 -12.941406 13.957031 -13.625 13 -14.09375 C 12.050781 -14.5625 11.003906 -14.796875 9.859375 -14.796875 C 8.597656 -14.796875 7.4375 -14.503906 6.375 -13.921875 C 5.320312 -13.335938 4.476562 -12.519531 3.84375 -11.46875 C 3.21875 -10.425781 2.90625 -9.25 2.90625 -7.9375 C 2.90625 -6.632812 3.210938 -5.460938 3.828125 -4.421875 C 4.441406 -3.378906 5.285156 -2.5625 6.359375 -1.96875 C 7.429688 -1.382812 8.628906 -1.09375 9.953125 -1.09375 C 11.066406 -1.09375 12.09375 -1.3125 13.03125 -1.75 C 13.96875 -2.195312 14.804688 -2.859375 15.546875 -3.734375 L 16.8125 -2.78125 C 16 -1.738281 14.992188 -0.953125 13.796875 -0.421875 C 12.609375 0.109375 11.289062 0.375 9.84375 0.375 Z M 9.84375 0.375 "/></g></g></g><g fill="#e2e8f0" fill-opacity="1"><g transform="translate(523.431687, 929.186804)"><g><path d="M 1.9375 -15.953125 L 11.046875 -15.953125 L 11.046875 -14.421875 L 3.53125 -14.421875 L 3.53125 -9.375 L 11.046875 -9.375 L 11.046875 -7.859375 L 3.53125 -7.859375 L 3.53125 -1.5625 L 11.046875 -1.5625 L 11.046875 0 L 1.9375 0 Z M 1.9375 -15.953125 "/></g></g></g><g fill="#e2e8f0" fill-opacity="1"><g transform="translate(535.312473, 929.186804)"><g><path d="M 2.796875 0.3125 C 2.429688 0.3125 2.117188 0.179688 1.859375 -0.078125 C 1.597656 -0.347656 1.46875 -0.671875 1.46875 -1.046875 C 1.46875 -1.285156 1.523438 -1.503906 1.640625 -1.703125 C 1.765625 -1.910156 1.925781 -2.078125 2.125 -2.203125 C 2.332031 -2.335938 2.554688 -2.40625 2.796875 -2.40625 C 3.035156 -2.40625 3.253906 -2.34375 3.453125 -2.21875 C 3.648438 -2.101562 3.8125 -1.941406 3.9375 -1.734375 C 4.0625 -1.523438 4.125 -1.296875 4.125 -1.046875 C 4.125 -0.671875 3.992188 -0.347656 3.734375 -0.078125 C 3.484375 0.179688 3.171875 0.3125 2.796875 0.3125 Z M 2.796875 0.3125 "/></g></g></g><g fill="#e2e8f0" fill-opacity="1"><g transform="translate(414.659587, 953.186802)"><g><path d="M 5.859375 -15.953125 C 7.878906 -15.953125 9.597656 -15.644531 11.015625 -15.03125 C 12.441406 -14.414062 13.523438 -13.5 14.265625 -12.28125 C 15.015625 -11.070312 15.390625 -9.578125 15.390625 -7.796875 C 15.390625 -5.253906 14.664062 -3.316406 13.21875 -1.984375 C 11.78125 -0.660156 9.570312 0 6.59375 0 L 1.9375 0 L 1.9375 -15.953125 Z M 6.59375 -1.5625 C 8.925781 -1.5625 10.695312 -2.0625 11.90625 -3.0625 C 13.125 -4.070312 13.734375 -5.644531 13.734375 -7.78125 C 13.734375 -10.0625 13.046875 -11.734375 11.671875 -12.796875 C 10.304688 -13.859375 8.367188 -14.390625 5.859375 -14.390625 L 3.53125 -14.390625 L 3.53125 -1.5625 Z M 6.59375 -1.5625 "/></g></g></g><g fill="#e2e8f0" fill-opacity="1"><g transform="translate(431.292692, 953.186802)"><g><path d="M 1.9375 -15.953125 L 11.046875 -15.953125 L 11.046875 -14.421875 L 3.53125 -14.421875 L 3.53125 -9.375 L 11.046875 -9.375 L 11.046875 -7.859375 L 3.53125 -7.859375 L 3.53125 -1.5625 L 11.046875 -1.5625 L 11.046875 0 L 1.9375 0 Z M 1.9375 -15.953125 "/></g></g></g><g fill="#e2e8f0" fill-opacity="1"><g transform="translate(443.173478, 953.186802)"><g><path d="M 1.9375 -15.953125 L 9.9375 -15.953125 L 9.9375 -14.390625 L 3.53125 -14.390625 L 3.53125 -9.40625 L 9.9375 -9.40625 L 9.9375 -7.84375 L 3.53125 -7.84375 L 3.53125 0 L 1.9375 0 Z M 1.9375 -15.953125 "/></g></g></g><g fill="#e2e8f0" fill-opacity="1"><g transform="translate(453.943912, 953.186802)"><g><path d="M 1.9375 -15.953125 L 11.046875 -15.953125 L 11.046875 -14.421875 L 3.53125 -14.421875 L 3.53125 -9.375 L 11.046875 -9.375 L 11.046875 -7.859375 L 3.53125 -7.859375 L 3.53125 -1.5625 L 11.046875 -1.5625 L 11.046875 0 L 1.9375 0 Z M 1.9375 -15.953125 "/></g></g></g><g fill="#e2e8f0" fill-opacity="1"><g transform="translate(465.602545, 953.186802)"><g><path d="M 9.84375 0.375 C 8.113281 0.375 6.59375 0.00390625 5.28125 -0.734375 C 3.976562 -1.484375 2.976562 -2.5 2.28125 -3.78125 C 1.59375 -5.0625 1.25 -6.488281 1.25 -8.0625 C 1.25 -9.613281 1.617188 -11.019531 2.359375 -12.28125 C 3.097656 -13.539062 4.125 -14.535156 5.4375 -15.265625 C 6.75 -15.992188 8.21875 -16.359375 9.84375 -16.359375 C 11.289062 -16.359375 12.609375 -16.070312 13.796875 -15.5 C 14.984375 -14.925781 15.960938 -14.09375 16.734375 -13 L 15.46875 -12.046875 C 14.78125 -12.941406 13.957031 -13.625 13 -14.09375 C 12.050781 -14.5625 11.003906 -14.796875 9.859375 -14.796875 C 8.597656 -14.796875 7.4375 -14.503906 6.375 -13.921875 C 5.320312 -13.335938 4.476562 -12.519531 3.84375 -11.46875 C 3.21875 -10.425781 2.90625 -9.25 2.90625 -7.9375 C 2.90625 -6.632812 3.210938 -5.460938 3.828125 -4.421875 C 4.441406 -3.378906 5.285156 -2.5625 6.359375 -1.96875 C 7.429688 -1.382812 8.628906 -1.09375 9.953125 -1.09375 C 11.066406 -1.09375 12.09375 -1.3125 13.03125 -1.75 C 13.96875 -2.195312 14.804688 -2.859375 15.546875 -3.734375 L 16.8125 -2.78125 C 16 -1.738281 14.992188 -0.953125 13.796875 -0.421875 C 12.609375 0.109375 11.289062 0.375 9.84375 0.375 Z M 9.84375 0.375 "/></g></g></g><g fill="#e2e8f0" fill-opacity="1"><g transform="translate(483.679105, 953.186802)"><g><path d="M 3.953125 -14.390625 L 0.359375 -14.390625 L 0.359375 -15.953125 L 9.109375 -15.953125 L 9.109375 -14.390625 L 5.546875 -14.390625 L 5.546875 0 L 3.953125 0 Z M 3.953125 -14.390625 "/></g></g></g><g fill="#e2e8f0" fill-opacity="1"><g transform="translate(492.695011, 953.186802)"><g/></g></g><g fill="#e2e8f0" fill-opacity="1"><g transform="translate(498.84637, 953.186802)"><g><path d="M 6.484375 -15.953125 C 8.304688 -15.953125 9.671875 -15.570312 10.578125 -14.8125 C 11.484375 -14.0625 11.9375 -13.023438 11.9375 -11.703125 C 11.9375 -10.753906 11.703125 -9.960938 11.234375 -9.328125 C 10.773438 -8.691406 10.128906 -8.210938 9.296875 -7.890625 C 8.472656 -7.578125 7.507812 -7.421875 6.40625 -7.421875 L 12.15625 0 L 10.171875 0 L 4.53125 -7.421875 L 3.53125 -7.421875 L 3.53125 0 L 1.9375 0 L 1.9375 -15.953125 Z M 6.40625 -8.96875 C 7.632812 -8.96875 8.582031 -9.191406 9.25 -9.640625 C 9.925781 -10.085938 10.265625 -10.773438 10.265625 -11.703125 C 10.265625 -12.523438 9.972656 -13.175781 9.390625 -13.65625 C 8.816406 -14.144531 7.953125 -14.390625 6.796875 -14.390625 L 3.53125 -14.390625 L 3.53125 -8.96875 Z M 6.40625 -8.96875 "/></g></g></g><g fill="#e2e8f0" fill-opacity="1"><g transform="translate(511.992964, 953.186802)"><g><path d="M 1.9375 -15.953125 L 3.53125 -15.953125 L 3.53125 0 L 1.9375 0 Z M 1.9375 -15.953125 "/></g></g></g><g fill="#e2e8f0" fill-opacity="1"><g transform="translate(517.433702, 953.186802)"><g><path d="M 5.375 0.40625 C 4.3125 0.40625 3.394531 0.125 2.625 -0.4375 C 1.851562 -1 1.164062 -1.847656 0.5625 -2.984375 L 1.90625 -3.796875 C 2.382812 -2.921875 2.90625 -2.257812 3.46875 -1.8125 C 4.03125 -1.375 4.625 -1.15625 5.25 -1.15625 C 5.789062 -1.15625 6.285156 -1.273438 6.734375 -1.515625 C 7.191406 -1.765625 7.550781 -2.097656 7.8125 -2.515625 C 8.070312 -2.929688 8.203125 -3.378906 8.203125 -3.859375 C 8.203125 -4.347656 8.0625 -4.800781 7.78125 -5.21875 C 7.507812 -5.644531 7.113281 -6.082031 6.59375 -6.53125 C 6.082031 -6.988281 5.179688 -7.738281 3.890625 -8.78125 C 3.304688 -9.238281 2.851562 -9.644531 2.53125 -10 C 2.21875 -10.351562 1.976562 -10.734375 1.8125 -11.140625 C 1.65625 -11.546875 1.578125 -12.039062 1.578125 -12.625 C 1.578125 -13.332031 1.742188 -13.96875 2.078125 -14.53125 C 2.421875 -15.101562 2.890625 -15.550781 3.484375 -15.875 C 4.078125 -16.195312 4.726562 -16.359375 5.4375 -16.359375 C 6.332031 -16.359375 7.097656 -16.128906 7.734375 -15.671875 C 8.378906 -15.222656 9.007812 -14.582031 9.625 -13.75 L 8.328125 -12.75 C 7.992188 -13.195312 7.691406 -13.550781 7.421875 -13.8125 C 7.148438 -14.082031 6.847656 -14.296875 6.515625 -14.453125 C 6.179688 -14.617188 5.8125 -14.703125 5.40625 -14.703125 C 4.957031 -14.703125 4.566406 -14.609375 4.234375 -14.421875 C 3.910156 -14.242188 3.664062 -14 3.5 -13.6875 C 3.332031 -13.375 3.25 -13.039062 3.25 -12.6875 C 3.25 -12.1875 3.394531 -11.71875 3.6875 -11.28125 C 3.976562 -10.84375 4.410156 -10.414062 4.984375 -10 C 6.160156 -9.132812 7.070312 -8.421875 7.71875 -7.859375 C 8.363281 -7.296875 8.878906 -6.6875 9.265625 -6.03125 C 9.660156 -5.382812 9.859375 -4.671875 9.859375 -3.890625 C 9.859375 -3.148438 9.660156 -2.445312 9.265625 -1.78125 C 8.878906 -1.125 8.34375 -0.59375 7.65625 -0.1875 C 6.976562 0.207031 6.21875 0.40625 5.375 0.40625 Z M 5.375 0.40625 "/></g></g></g><g fill="#e2e8f0" fill-opacity="1"><g transform="translate(528.248551, 953.186802)"><g><path d="M 12.671875 0 L 10.6875 0 L 3.53125 -7.90625 L 3.53125 0 L 1.9375 0 L 1.9375 -15.953125 L 3.53125 -15.953125 L 3.53125 -9.328125 L 9.96875 -15.953125 L 11.9375 -15.953125 L 4.859375 -8.59375 Z M 12.671875 0 "/></g></g></g><g fill="#e2e8f0" fill-opacity="1"><g transform="translate(433.491617, 977.1868)"><g><path d="M 5.375 0.40625 C 4.3125 0.40625 3.394531 0.125 2.625 -0.4375 C 1.851562 -1 1.164062 -1.847656 0.5625 -2.984375 L 1.90625 -3.796875 C 2.382812 -2.921875 2.90625 -2.257812 3.46875 -1.8125 C 4.03125 -1.375 4.625 -1.15625 5.25 -1.15625 C 5.789062 -1.15625 6.285156 -1.273438 6.734375 -1.515625 C 7.191406 -1.765625 7.550781 -2.097656 7.8125 -2.515625 C 8.070312 -2.929688 8.203125 -3.378906 8.203125 -3.859375 C 8.203125 -4.347656 8.0625 -4.800781 7.78125 -5.21875 C 7.507812 -5.644531 7.113281 -6.082031 6.59375 -6.53125 C 6.082031 -6.988281 5.179688 -7.738281 3.890625 -8.78125 C 3.304688 -9.238281 2.851562 -9.644531 2.53125 -10 C 2.21875 -10.351562 1.976562 -10.734375 1.8125 -11.140625 C 1.65625 -11.546875 1.578125 -12.039062 1.578125 -12.625 C 1.578125 -13.332031 1.742188 -13.96875 2.078125 -14.53125 C 2.421875 -15.101562 2.890625 -15.550781 3.484375 -15.875 C 4.078125 -16.195312 4.726562 -16.359375 5.4375 -16.359375 C 6.332031 -16.359375 7.097656 -16.128906 7.734375 -15.671875 C 8.378906 -15.222656 9.007812 -14.582031 9.625 -13.75 L 8.328125 -12.75 C 7.992188 -13.195312 7.691406 -13.550781 7.421875 -13.8125 C 7.148438 -14.082031 6.847656 -14.296875 6.515625 -14.453125 C 6.179688 -14.617188 5.8125 -14.703125 5.40625 -14.703125 C 4.957031 -14.703125 4.566406 -14.609375 4.234375 -14.421875 C 3.910156 -14.242188 3.664062 -14 3.5 -13.6875 C 3.332031 -13.375 3.25 -13.039062 3.25 -12.6875 C 3.25 -12.1875 3.394531 -11.71875 3.6875 -11.28125 C 3.976562 -10.84375 4.410156 -10.414062 4.984375 -10 C 6.160156 -9.132812 7.070312 -8.421875 7.71875 -7.859375 C 8.363281 -7.296875 8.878906 -6.6875 9.265625 -6.03125 C 9.660156 -5.382812 9.859375 -4.671875 9.859375 -3.890625 C 9.859375 -3.148438 9.660156 -2.445312 9.265625 -1.78125 C 8.878906 -1.125 8.34375 -0.59375 7.65625 -0.1875 C 6.976562 0.207031 6.21875 0.40625 5.375 0.40625 Z M 5.375 0.40625 "/></g></g></g><g fill="#e2e8f0" fill-opacity="1"><g transform="translate(444.306466, 977.1868)"><g><path d="M 9.84375 0.375 C 8.113281 0.375 6.59375 0.00390625 5.28125 -0.734375 C 3.976562 -1.484375 2.976562 -2.5 2.28125 -3.78125 C 1.59375 -5.0625 1.25 -6.488281 1.25 -8.0625 C 1.25 -9.613281 1.617188 -11.019531 2.359375 -12.28125 C 3.097656 -13.539062 4.125 -14.535156 5.4375 -15.265625 C 6.75 -15.992188 8.21875 -16.359375 9.84375 -16.359375 C 11.289062 -16.359375 12.609375 -16.070312 13.796875 -15.5 C 14.984375 -14.925781 15.960938 -14.09375 16.734375 -13 L 15.46875 -12.046875 C 14.78125 -12.941406 13.957031 -13.625 13 -14.09375 C 12.050781 -14.5625 11.003906 -14.796875 9.859375 -14.796875 C 8.597656 -14.796875 7.4375 -14.503906 6.375 -13.921875 C 5.320312 -13.335938 4.476562 -12.519531 3.84375 -11.46875 C 3.21875 -10.425781 2.90625 -9.25 2.90625 -7.9375 C 2.90625 -6.632812 3.210938 -5.460938 3.828125 -4.421875 C 4.441406 -3.378906 5.285156 -2.5625 6.359375 -1.96875 C 7.429688 -1.382812 8.628906 -1.09375 9.953125 -1.09375 C 11.066406 -1.09375 12.09375 -1.3125 13.03125 -1.75 C 13.96875 -2.195312 14.804688 -2.859375 15.546875 -3.734375 L 16.8125 -2.78125 C 16 -1.738281 14.992188 -0.953125 13.796875 -0.421875 C 12.609375 0.109375 11.289062 0.375 9.84375 0.375 Z M 9.84375 0.375 "/></g></g></g><g fill="#e2e8f0" fill-opacity="1"><g transform="translate(461.716579, 977.1868)"><g><path d="M 9.671875 0.40625 C 8.066406 0.40625 6.625 0.03125 5.34375 -0.71875 C 4.0625 -1.476562 3.054688 -2.492188 2.328125 -3.765625 C 1.609375 -5.046875 1.25 -6.425781 1.25 -7.90625 C 1.25 -9.46875 1.617188 -10.890625 2.359375 -12.171875 C 3.097656 -13.460938 4.097656 -14.484375 5.359375 -15.234375 C 6.628906 -15.984375 8.019531 -16.359375 9.53125 -16.359375 C 11.113281 -16.359375 12.554688 -15.988281 13.859375 -15.25 C 15.160156 -14.519531 16.1875 -13.515625 16.9375 -12.234375 C 17.6875 -10.953125 18.0625 -9.53125 18.0625 -7.96875 C 18.0625 -6.4375 17.691406 -5.03125 16.953125 -3.75 C 16.210938 -2.46875 15.203125 -1.453125 13.921875 -0.703125 C 12.640625 0.0351562 11.222656 0.40625 9.671875 0.40625 Z M 9.625 -1.15625 C 10.851562 -1.15625 11.984375 -1.445312 13.015625 -2.03125 C 14.054688 -2.613281 14.878906 -3.425781 15.484375 -4.46875 C 16.085938 -5.519531 16.390625 -6.695312 16.390625 -8 C 16.390625 -9.300781 16.078125 -10.46875 15.453125 -11.5 C 14.828125 -12.539062 13.992188 -13.347656 12.953125 -13.921875 C 11.910156 -14.503906 10.800781 -14.796875 9.625 -14.796875 C 8.445312 -14.796875 7.34375 -14.503906 6.3125 -13.921875 C 5.289062 -13.335938 4.46875 -12.519531 3.84375 -11.46875 C 3.21875 -10.414062 2.90625 -9.226562 2.90625 -7.90625 C 2.90625 -6.632812 3.210938 -5.484375 3.828125 -4.453125 C 4.441406 -3.421875 5.257812 -2.613281 6.28125 -2.03125 C 7.3125 -1.445312 8.425781 -1.15625 9.625 -1.15625 Z M 9.625 -1.15625 "/></g></g></g><g fill="#e2e8f0" fill-opacity="1"><g transform="translate(481.014532, 977.1868)"><g><path d="M 6.484375 -15.953125 C 8.304688 -15.953125 9.671875 -15.570312 10.578125 -14.8125 C 11.484375 -14.0625 11.9375 -13.023438 11.9375 -11.703125 C 11.9375 -10.753906 11.703125 -9.960938 11.234375 -9.328125 C 10.773438 -8.691406 10.128906 -8.210938 9.296875 -7.890625 C 8.472656 -7.578125 7.507812 -7.421875 6.40625 -7.421875 L 12.15625 0 L 10.171875 0 L 4.53125 -7.421875 L 3.53125 -7.421875 L 3.53125 0 L 1.9375 0 L 1.9375 -15.953125 Z M 6.40625 -8.96875 C 7.632812 -8.96875 8.582031 -9.191406 9.25 -9.640625 C 9.925781 -10.085938 10.265625 -10.773438 10.265625 -11.703125 C 10.265625 -12.523438 9.972656 -13.175781 9.390625 -13.65625 C 8.816406 -14.144531 7.953125 -14.390625 6.796875 -14.390625 L 3.53125 -14.390625 L 3.53125 -8.96875 Z M 6.40625 -8.96875 "/></g></g></g><g fill="#e2e8f0" fill-opacity="1"><g transform="translate(494.161125, 977.1868)"><g><path d="M 1.9375 -15.953125 L 3.53125 -15.953125 L 3.53125 0 L 1.9375 0 Z M 1.9375 -15.953125 "/></g></g></g><g fill="#e2e8f0" fill-opacity="1"><g transform="translate(499.601863, 977.1868)"><g><path d="M 12.84375 -15.953125 L 14.4375 -15.953125 L 14.4375 0 L 14.09375 0 L 3.53125 -12.0625 L 3.53125 0 L 1.9375 0 L 1.9375 -15.953125 L 2.265625 -15.953125 L 12.84375 -3.734375 Z M 12.84375 -15.953125 "/></g></g></g><g fill="#e2e8f0" fill-opacity="1"><g transform="translate(515.94628, 977.1868)"><g><path d="M 18.28125 -7.671875 L 18.28125 -7.625 C 18.28125 -5.957031 17.941406 -4.523438 17.265625 -3.328125 C 16.597656 -2.128906 15.660156 -1.210938 14.453125 -0.578125 C 13.242188 0.0546875 11.847656 0.375 10.265625 0.375 C 8.484375 0.375 6.90625 -0.0078125 5.53125 -0.78125 C 4.164062 -1.550781 3.113281 -2.570312 2.375 -3.84375 C 1.632812 -5.113281 1.265625 -6.488281 1.265625 -7.96875 C 1.265625 -9.488281 1.632812 -10.882812 2.375 -12.15625 C 3.113281 -13.425781 4.144531 -14.441406 5.46875 -15.203125 C 6.800781 -15.972656 8.316406 -16.359375 10.015625 -16.359375 C 11.453125 -16.359375 12.753906 -16.097656 13.921875 -15.578125 C 15.097656 -15.066406 16.234375 -14.296875 17.328125 -13.265625 L 16.109375 -12.109375 C 15.222656 -12.984375 14.253906 -13.648438 13.203125 -14.109375 C 12.148438 -14.566406 11.101562 -14.796875 10.0625 -14.796875 C 8.726562 -14.796875 7.515625 -14.5 6.421875 -13.90625 C 5.335938 -13.3125 4.484375 -12.492188 3.859375 -11.453125 C 3.242188 -10.421875 2.9375 -9.273438 2.9375 -8.015625 C 2.9375 -6.804688 3.253906 -5.675781 3.890625 -4.625 C 4.523438 -3.570312 5.40625 -2.734375 6.53125 -2.109375 C 7.65625 -1.484375 8.914062 -1.171875 10.3125 -1.171875 C 11.332031 -1.171875 12.285156 -1.363281 13.171875 -1.75 C 14.066406 -2.132812 14.804688 -2.695312 15.390625 -3.4375 C 15.972656 -4.1875 16.335938 -5.078125 16.484375 -6.109375 L 11.390625 -6.109375 L 11.390625 -7.671875 Z M 18.28125 -7.671875 "/></g></g></g><g fill="#e2e8f0" fill-opacity="1"><g transform="translate(535.310848, 977.1868)"><g><path d="M 2.796875 0.3125 C 2.429688 0.3125 2.117188 0.179688 1.859375 -0.078125 C 1.597656 -0.347656 1.46875 -0.671875 1.46875 -1.046875 C 1.46875 -1.285156 1.523438 -1.503906 1.640625 -1.703125 C 1.765625 -1.910156 1.925781 -2.078125 2.125 -2.203125 C 2.332031 -2.335938 2.554688 -2.40625 2.796875 -2.40625 C 3.035156 -2.40625 3.253906 -2.34375 3.453125 -2.21875 C 3.648438 -2.101562 3.8125 -1.941406 3.9375 -1.734375 C 4.0625 -1.523438 4.125 -1.296875 4.125 -1.046875 C 4.125 -0.671875 3.992188 -0.347656 3.734375 -0.078125 C 3.484375 0.179688 3.171875 0.3125 2.796875 0.3125 Z M 2.796875 0.3125 "/></g></g></g><path stroke-linecap="butt" transform="matrix(0.75, 0, 0, 0.75, 287.007841, 803.922271)" fill="none" stroke-linejoin="miter" d="M -0.0000385721 0.499472 L 1234.645901 0.499472 " stroke="#e2e8f0" stroke-width="1" stroke-opacity="1" stroke-miterlimit="4"/><path stroke-linecap="butt" transform="matrix(0.000000001309, 0.75, -0.75, 0.000000001309, 578.366, 631.042534)" fill="none" stroke-linejoin="miter" d="M 0.000580138 0.498416 L 374.912071 0.498417 " stroke="#e2e8f0" stroke-width="1" stroke-opacity="1" stroke-miterlimit="4"/><g fill="#e2e8f0" fill-opacity="1"><g transform="translate(226.346732, 752.307155)"><g><path d="M 9.078125 -74.90625 L 16.59375 -74.90625 L 16.59375 0 L 9.078125 0 Z M 9.078125 -74.90625 "/></g></g></g><g fill="#e2e8f0" fill-opacity="1"><g transform="translate(246.688901, 752.307155)"><g><path d="M 15.4375 -55.390625 L 15.4375 -45.90625 C 17.945312 -49.519531 20.765625 -52.25 23.890625 -54.09375 C 27.015625 -55.9375 30.523438 -56.859375 34.421875 -56.859375 C 38.671875 -56.859375 42.269531 -55.742188 45.21875 -53.515625 C 48.175781 -51.296875 50.421875 -47.957031 51.953125 -43.5 C 54.390625 -47.882812 57.363281 -51.207031 60.875 -53.46875 C 64.382812 -55.726562 68.191406 -56.859375 72.296875 -56.859375 C 76.117188 -56.859375 79.457031 -55.953125 82.3125 -54.140625 C 85.164062 -52.335938 87.359375 -49.625 88.890625 -46 C 90.421875 -42.382812 91.1875 -38.003906 91.1875 -32.859375 L 91.1875 0 L 84.09375 0 L 84.09375 -34.328125 C 84.09375 -39.191406 82.992188 -43.015625 80.796875 -45.796875 C 78.609375 -48.578125 75.320312 -49.96875 70.9375 -49.96875 C 67.46875 -49.96875 64.375 -49.007812 61.65625 -47.09375 C 58.945312 -45.1875 56.859375 -42.507812 55.390625 -39.0625 C 53.929688 -35.625 53.203125 -31.679688 53.203125 -27.234375 L 53.203125 0 L 46.109375 0 L 46.109375 -30.78125 C 46.109375 -37.175781 45.117188 -41.972656 43.140625 -45.171875 C 41.160156 -48.367188 37.804688 -49.96875 33.078125 -49.96875 C 29.453125 -49.96875 26.316406 -48.992188 23.671875 -47.046875 C 21.035156 -45.097656 19.003906 -42.332031 17.578125 -38.75 C 16.148438 -35.175781 15.4375 -30.988281 15.4375 -26.1875 L 15.4375 0 L 8.34375 0 L 8.34375 -55.390625 Z M 15.4375 -55.390625 "/></g></g></g><g fill="#e2e8f0" fill-opacity="1"><g transform="translate(339.950906, 752.307155)"><g><path d="M 15.4375 -55.390625 L 15.4375 -45.28125 C 18.15625 -49.101562 21.390625 -51.988281 25.140625 -53.9375 C 28.898438 -55.882812 33.003906 -56.859375 37.453125 -56.859375 C 42.734375 -56.859375 47.566406 -55.535156 51.953125 -52.890625 C 56.335938 -50.253906 59.796875 -46.726562 62.328125 -42.3125 C 64.867188 -37.894531 66.140625 -33.078125 66.140625 -27.859375 C 66.140625 -22.640625 64.882812 -17.785156 62.375 -13.296875 C 59.875 -8.816406 56.453125 -5.253906 52.109375 -2.609375 C 47.765625 0.0351562 42.945312 1.359375 37.65625 1.359375 C 28.820312 1.359375 21.414062 -2.257812 15.4375 -9.5 L 15.4375 20.234375 L 8.34375 20.234375 L 8.34375 -55.390625 Z M 36.9375 -5.109375 C 40.96875 -5.109375 44.648438 -6.132812 47.984375 -8.1875 C 51.328125 -10.238281 53.972656 -13.003906 55.921875 -16.484375 C 57.867188 -19.960938 58.84375 -23.679688 58.84375 -27.640625 C 58.84375 -31.609375 57.898438 -35.296875 56.015625 -38.703125 C 54.140625 -42.109375 51.515625 -44.835938 48.140625 -46.890625 C 44.773438 -48.941406 41.039062 -49.96875 36.9375 -49.96875 C 32.832031 -49.96875 29.109375 -48.976562 25.765625 -47 C 22.429688 -45.019531 19.789062 -42.320312 17.84375 -38.90625 C 15.894531 -35.5 14.921875 -31.675781 14.921875 -27.4375 C 14.921875 -22.988281 15.945312 -19.078125 18 -15.703125 C 20.050781 -12.328125 22.757812 -9.71875 26.125 -7.875 C 29.5 -6.03125 33.101562 -5.109375 36.9375 -5.109375 Z M 36.9375 -5.109375 "/></g></g></g><g fill="#e2e8f0" fill-opacity="1"><g transform="translate(406.089648, 752.307155)"><g><path d="M 33.703125 1.359375 C 28.410156 1.359375 23.609375 0.0351562 19.296875 -2.609375 C 14.984375 -5.253906 11.578125 -8.816406 9.078125 -13.296875 C 6.578125 -17.785156 5.328125 -22.640625 5.328125 -27.859375 C 5.328125 -33.078125 6.59375 -37.894531 9.125 -42.3125 C 11.664062 -46.726562 15.125 -50.253906 19.5 -52.890625 C 23.882812 -55.535156 28.6875 -56.859375 33.90625 -56.859375 C 38.425781 -56.859375 42.5625 -55.882812 46.3125 -53.9375 C 50.070312 -51.988281 53.3125 -49.101562 56.03125 -45.28125 L 56.03125 -55.390625 L 63.015625 -55.390625 L 63.015625 0 L 56.03125 0 L 56.03125 -9.5 C 53.03125 -5.875 49.648438 -3.15625 45.890625 -1.34375 C 42.140625 0.457031 38.078125 1.359375 33.703125 1.359375 Z M 34.421875 -5.109375 C 38.253906 -5.109375 41.875 -6.03125 45.28125 -7.875 C 48.6875 -9.71875 51.414062 -12.328125 53.46875 -15.703125 C 55.519531 -19.078125 56.546875 -22.988281 56.546875 -27.4375 C 56.546875 -31.675781 55.570312 -35.5 53.625 -38.90625 C 51.675781 -42.320312 49.03125 -45.019531 45.6875 -47 C 42.351562 -48.976562 38.632812 -49.96875 34.53125 -49.96875 C 30.425781 -49.96875 26.6875 -48.941406 23.3125 -46.890625 C 19.9375 -44.835938 17.3125 -42.109375 15.4375 -38.703125 C 13.5625 -35.296875 12.625 -31.609375 12.625 -27.640625 C 12.625 -23.679688 13.578125 -19.976562 15.484375 -16.53125 C 17.398438 -13.09375 20.023438 -10.328125 23.359375 -8.234375 C 26.703125 -6.148438 30.390625 -5.109375 34.421875 -5.109375 Z M 34.421875 -5.109375 "/></g></g></g><g fill="#e2e8f0" fill-opacity="1"><g transform="translate(472.228379, 752.307155)"><g><path d="M 34.640625 1.453125 C 29.003906 1.453125 23.957031 0.164062 19.5 -2.40625 C 15.050781 -4.976562 11.578125 -8.488281 9.078125 -12.9375 C 6.578125 -17.382812 5.328125 -22.320312 5.328125 -27.75 C 5.328125 -33.25 6.59375 -38.207031 9.125 -42.625 C 11.664062 -47.039062 15.195312 -50.515625 19.71875 -53.046875 C 24.238281 -55.585938 29.28125 -56.859375 34.84375 -56.859375 C 40.132812 -56.859375 44.953125 -55.796875 49.296875 -53.671875 C 53.640625 -51.554688 57.132812 -48.617188 59.78125 -44.859375 L 54.5625 -40.375 C 51.914062 -43.570312 48.972656 -45.96875 45.734375 -47.5625 C 42.503906 -49.164062 38.769531 -49.96875 34.53125 -49.96875 C 30.351562 -49.96875 26.613281 -48.992188 23.3125 -47.046875 C 20.007812 -45.097656 17.398438 -42.4375 15.484375 -39.0625 C 13.578125 -35.695312 12.625 -31.925781 12.625 -27.75 C 12.625 -23.4375 13.5625 -19.578125 15.4375 -16.171875 C 17.3125 -12.765625 19.9375 -10.117188 23.3125 -8.234375 C 26.6875 -6.359375 30.460938 -5.421875 34.640625 -5.421875 C 42.703125 -5.421875 49.34375 -8.550781 54.5625 -14.8125 L 59.890625 -10.640625 C 56.890625 -6.816406 53.25 -3.84375 48.96875 -1.71875 C 44.695312 0.394531 39.921875 1.453125 34.640625 1.453125 Z M 34.640625 1.453125 "/></g></g></g><g fill="#e2e8f0" fill-opacity="1"><g transform="translate(530.960369, 752.307155)"><g><path d="M 14.296875 -49.140625 L 4.484375 -49.140625 L 4.484375 -55.390625 L 14.296875 -55.390625 L 14.296875 -76.0625 L 21.390625 -76.0625 L 21.390625 -55.390625 L 32.765625 -55.390625 L 32.765625 -49.140625 L 21.390625 -49.140625 L 21.390625 0 L 14.296875 0 Z M 14.296875 -49.140625 "/></g></g></g></svg>